<svg width="223" height="37" viewBox="0 0 223 37" fill="none" xmlns="http://www.w3.org/2000/svg">
<g id="langchu-black">
<rect id="Rectangle 162" x="10.1094" y="0.86377" width="0.248281" height="4.96562" fill="black" fill-opacity="0.6"/>
<rect id="Rectangle 162_2" x="7.62598" y="0.86377" width="0.248281" height="4.96562" fill="black" fill-opacity="0.6"/>
<rect id="Rectangle 162_3" x="5.14355" y="0.86377" width="0.248281" height="4.96562" fill="black" fill-opacity="0.6"/>
<rect id="Rectangle 162_4" x="2.66113" y="0.86377" width="0.248281" height="4.96562" fill="black" fill-opacity="0.6"/>
<rect id="Rectangle 162_5" x="0.177734" y="0.86377" width="0.248281" height="4.96562" fill="black" fill-opacity="0.6"/>
<rect id="Rectangle 162_6" x="10.1094" y="7.07031" width="0.248281" height="4.96562" fill="black" fill-opacity="0.6"/>
<rect id="Rectangle 162_7" x="7.62598" y="7.07031" width="0.248281" height="4.96562" fill="black" fill-opacity="0.6"/>
<rect id="Rectangle 162_8" x="5.14355" y="7.07031" width="0.248281" height="4.96562" fill="black" fill-opacity="0.6"/>
<rect id="Rectangle 162_9" x="2.66113" y="7.07031" width="0.248281" height="4.96562" fill="black" fill-opacity="0.6"/>
<rect id="Rectangle 162_10" x="0.177734" y="7.07031" width="0.248281" height="4.96562" fill="black" fill-opacity="0.6"/>
<rect id="Rectangle 162_11" x="10.1094" y="13.2769" width="0.248281" height="4.96562" fill="black" fill-opacity="0.6"/>
<rect id="Rectangle 162_12" x="7.62598" y="13.2769" width="0.248281" height="4.96562" fill="black" fill-opacity="0.6"/>
<rect id="Rectangle 162_13" x="5.14355" y="13.2769" width="0.248281" height="4.96562" fill="black" fill-opacity="0.6"/>
<rect id="Rectangle 162_14" x="2.66113" y="13.2769" width="0.248281" height="4.96562" fill="black" fill-opacity="0.6"/>
<rect id="Rectangle 162_15" x="0.177734" y="13.2769" width="0.248281" height="4.96562" fill="black" fill-opacity="0.6"/>
<rect id="Rectangle 162_16" x="10.1094" y="19.4844" width="0.248281" height="4.96562" fill="black" fill-opacity="0.6"/>
<rect id="Rectangle 162_17" x="7.62598" y="19.4844" width="0.248281" height="4.96562" fill="black" fill-opacity="0.6"/>
<rect id="Rectangle 162_18" x="5.14355" y="19.4844" width="0.248281" height="4.96562" fill="black" fill-opacity="0.6"/>
<rect id="Rectangle 162_19" x="2.66113" y="19.4844" width="0.248281" height="4.96562" fill="black" fill-opacity="0.6"/>
<rect id="Rectangle 162_20" x="0.177734" y="19.4844" width="0.248281" height="4.96562" fill="black" fill-opacity="0.6"/>
<rect id="Rectangle 162_21" x="10.1094" y="25.6919" width="0.248281" height="4.96562" fill="black" fill-opacity="0.6"/>
<rect id="Rectangle 162_22" x="7.62598" y="25.6919" width="0.248281" height="4.96562" fill="black" fill-opacity="0.6"/>
<rect id="Rectangle 162_23" x="5.14355" y="25.6919" width="0.248281" height="4.96562" fill="black" fill-opacity="0.6"/>
<rect id="Rectangle 162_24" x="2.66113" y="25.6919" width="0.248281" height="4.96562" fill="black" fill-opacity="0.6"/>
<rect id="Rectangle 162_25" x="0.177734" y="25.6919" width="0.248281" height="4.96562" fill="black" fill-opacity="0.6"/>
<rect id="Rectangle 162_26" x="10.1094" y="31.8979" width="0.248281" height="4.96562" fill="black" fill-opacity="0.6"/>
<rect id="Rectangle 162_27" x="7.62598" y="31.8979" width="0.248281" height="4.96562" fill="black" fill-opacity="0.6"/>
<rect id="Rectangle 162_28" x="5.14355" y="31.8979" width="0.248281" height="4.96562" fill="black" fill-opacity="0.6"/>
<rect id="Rectangle 162_29" x="2.66113" y="31.8979" width="0.248281" height="4.96562" fill="black" fill-opacity="0.6"/>
<rect id="Rectangle 162_30" x="0.177734" y="31.8979" width="0.248281" height="4.96562" fill="black" fill-opacity="0.6"/>
<rect id="Rectangle 162_31" x="12.5918" y="0.86377" width="0.248281" height="4.96562" fill="black" fill-opacity="0.6"/>
<rect id="Rectangle 162_32" x="12.5918" y="7.07031" width="0.248281" height="4.96562" fill="black" fill-opacity="0.6"/>
<rect id="Rectangle 162_33" x="12.5918" y="13.2769" width="0.248281" height="4.96562" fill="black" fill-opacity="0.6"/>
<rect id="Rectangle 162_34" x="12.5918" y="19.4844" width="0.248281" height="4.96562" fill="black" fill-opacity="0.6"/>
<rect id="Rectangle 162_35" x="12.5918" y="25.6919" width="0.248281" height="4.96562" fill="black" fill-opacity="0.6"/>
<rect id="Rectangle 162_36" x="12.5918" y="31.8979" width="0.248281" height="4.96562" fill="black" fill-opacity="0.6"/>
<rect id="Rectangle 162_37" x="15.0752" y="0.86377" width="0.248281" height="4.96562" fill="black" fill-opacity="0.6"/>
<rect id="Rectangle 162_38" x="15.0752" y="7.07031" width="0.248281" height="4.96562" fill="black" fill-opacity="0.6"/>
<rect id="Rectangle 162_39" x="15.0752" y="13.2769" width="0.248281" height="4.96562" fill="black" fill-opacity="0.6"/>
<rect id="Rectangle 162_40" x="15.0752" y="19.4844" width="0.248281" height="4.96562" fill="black" fill-opacity="0.6"/>
<rect id="Rectangle 162_41" x="15.0752" y="25.6919" width="0.248281" height="4.96562" fill="black" fill-opacity="0.6"/>
<rect id="Rectangle 162_42" x="15.0752" y="31.8979" width="0.248281" height="4.96562" fill="black" fill-opacity="0.6"/>
<rect id="Rectangle 162_43" x="27.4883" y="0.86377" width="0.248281" height="4.96562" fill="black" fill-opacity="0.6"/>
<rect id="Rectangle 162_44" x="27.4883" y="7.07031" width="0.248281" height="4.96562" fill="black" fill-opacity="0.6"/>
<rect id="Rectangle 162_45" x="27.4883" y="13.2769" width="0.248281" height="4.96562" fill="black" fill-opacity="0.6"/>
<rect id="Rectangle 162_46" x="27.4883" y="19.4844" width="0.248281" height="4.96562" fill="black" fill-opacity="0.6"/>
<rect id="Rectangle 162_47" x="29.9717" y="0.86377" width="0.248281" height="4.96562" fill="black" fill-opacity="0.6"/>
<rect id="Rectangle 162_48" x="29.9717" y="7.07031" width="0.248281" height="4.96562" fill="black" fill-opacity="0.6"/>
<rect id="Rectangle 162_49" x="29.9717" y="13.2769" width="0.248281" height="4.96562" fill="black" fill-opacity="0.6"/>
<rect id="Rectangle 162_50" x="29.9717" y="19.4844" width="0.248281" height="4.96562" fill="black" fill-opacity="0.6"/>
<rect id="Rectangle 162_51" x="32.4541" y="0.86377" width="0.248281" height="4.96562" fill="black" fill-opacity="0.6"/>
<rect id="Rectangle 162_52" x="34.9375" y="0.86377" width="0.248281" height="4.96562" fill="black" fill-opacity="0.6"/>
<rect id="Rectangle 162_53" x="37.4199" y="0.86377" width="0.248281" height="4.96562" fill="black" fill-opacity="0.6"/>
<rect id="Rectangle 162_54" x="39.9023" y="0.86377" width="0.248281" height="4.96562" fill="black" fill-opacity="0.6"/>
<rect id="Rectangle 162_55" x="42.3857" y="0.86377" width="0.248281" height="4.96562" fill="black" fill-opacity="0.6"/>
<rect id="Rectangle 162_56" x="44.8682" y="0.86377" width="0.248281" height="4.96562" fill="black" fill-opacity="0.6"/>
<rect id="Rectangle 162_57" x="32.4541" y="7.07031" width="0.248281" height="4.96562" fill="black" fill-opacity="0.6"/>
<rect id="Rectangle 162_58" x="34.9375" y="7.07031" width="0.248281" height="4.96562" fill="black" fill-opacity="0.6"/>
<rect id="Rectangle 162_59" x="37.4199" y="7.07031" width="0.248281" height="4.96562" fill="black" fill-opacity="0.6"/>
<rect id="Rectangle 162_60" x="39.9023" y="7.07031" width="0.248281" height="4.96562" fill="black" fill-opacity="0.6"/>
<rect id="Rectangle 162_61" x="42.3857" y="7.07031" width="0.248281" height="4.96562" fill="black" fill-opacity="0.6"/>
<rect id="Rectangle 162_62" x="44.8682" y="7.07031" width="0.248281" height="4.96562" fill="black" fill-opacity="0.6"/>
<rect id="Rectangle 162_63" x="32.4541" y="13.2769" width="0.248281" height="4.96562" fill="black" fill-opacity="0.6"/>
<rect id="Rectangle 162_64" x="34.9375" y="13.2769" width="0.248281" height="4.96562" fill="black" fill-opacity="0.6"/>
<rect id="Rectangle 162_65" x="37.4199" y="13.2769" width="0.248281" height="4.96562" fill="black" fill-opacity="0.6"/>
<rect id="Rectangle 162_66" x="39.9023" y="13.2769" width="0.248281" height="4.96562" fill="black" fill-opacity="0.6"/>
<rect id="Rectangle 162_67" x="42.3857" y="13.2769" width="0.248281" height="4.96562" fill="black" fill-opacity="0.6"/>
<rect id="Rectangle 162_68" x="44.8682" y="13.2769" width="0.248281" height="4.96562" fill="black" fill-opacity="0.6"/>
<rect id="Rectangle 162_69" x="32.4541" y="19.4844" width="0.248281" height="4.96562" fill="black" fill-opacity="0.6"/>
<rect id="Rectangle 162_70" x="34.9375" y="19.4844" width="0.248281" height="4.96562" fill="black" fill-opacity="0.6"/>
<rect id="Rectangle 162_71" x="37.4199" y="19.4844" width="0.248281" height="4.96562" fill="black" fill-opacity="0.6"/>
<rect id="Rectangle 162_72" x="39.9023" y="19.4844" width="0.248281" height="4.96562" fill="black" fill-opacity="0.6"/>
<rect id="Rectangle 162_73" x="42.3857" y="19.4844" width="0.248281" height="4.96562" fill="black" fill-opacity="0.6"/>
<rect id="Rectangle 162_74" x="44.8682" y="19.4844" width="0.248281" height="4.96562" fill="black" fill-opacity="0.6"/>
<rect id="Rectangle 162_75" x="37.4199" y="25.6919" width="0.248281" height="4.96562" fill="black" fill-opacity="0.6"/>
<rect id="Rectangle 162_76" x="39.9023" y="25.6919" width="0.248281" height="4.96562" fill="black" fill-opacity="0.6"/>
<rect id="Rectangle 162_77" x="42.3857" y="25.6919" width="0.248281" height="4.96562" fill="black" fill-opacity="0.6"/>
<rect id="Rectangle 162_78" x="44.8682" y="25.6919" width="0.248281" height="4.96562" fill="black" fill-opacity="0.6"/>
<path id="Union" fill-rule="evenodd" clip-rule="evenodd" d="M17.1855 0.863281H18.1787V5.8289H17.1855V0.863281ZM141.789 27.187C140.65 27.187 139.591 26.9685 138.611 26.5315C137.638 26.0946 136.783 25.4888 136.049 24.7141C135.32 23.9395 134.751 23.0391 134.34 22.0128C133.93 20.98 133.725 19.871 133.725 18.6859C133.725 17.5934 133.907 16.5374 134.271 15.5178C134.635 14.4982 135.168 13.5911 135.87 12.7966C136.572 11.9955 137.429 11.3599 138.442 10.8898C139.462 10.4198 140.617 10.1847 141.908 10.1847C142.755 10.1847 143.557 10.2907 144.311 10.5025C145.066 10.7144 145.758 11.009 146.387 11.3864C147.023 11.7638 147.575 12.2074 148.046 12.7172L147.261 13.8692C146.639 13.1608 145.857 12.5947 144.917 12.171C143.977 11.7406 142.967 11.5254 141.888 11.5254C140.855 11.5254 139.932 11.7174 139.117 12.1015C138.31 12.4855 137.624 13.0118 137.062 13.6805C136.499 14.3426 136.072 15.1007 135.78 15.9548C135.489 16.8022 135.343 17.696 135.343 18.6362C135.343 19.6492 135.506 20.5927 135.83 21.4666C136.161 22.3339 136.621 23.0953 137.211 23.7508C137.8 24.3996 138.488 24.9061 139.276 25.2703C140.064 25.6278 140.912 25.8066 141.819 25.8066C142.554 25.8066 143.275 25.6841 143.984 25.4391C144.692 25.1941 145.328 24.8399 145.89 24.3765C146.46 23.913 146.91 23.3602 147.241 22.7179C147.579 22.0691 147.748 21.3408 147.748 20.5331V19.967H141.709V18.7454H149.297V20.2053C149.297 21.364 149.078 22.3803 148.641 23.2542C148.204 24.1282 147.622 24.8565 146.893 25.4391C146.165 26.0151 145.357 26.4521 144.47 26.75C143.583 27.0413 142.689 27.187 141.789 27.187ZM64.6959 26.8689V10.4824H66.2054V25.5381H73.0679V26.8689H64.6959ZM84.491 26.8689L90.9463 10.4824H92.3465L98.7919 26.8689H97.1632L95.167 21.6451H88.1258L86.1097 26.8689H84.491ZM94.6506 20.3143L91.6414 12.4686L88.6323 20.3143H94.6506ZM110.483 10.4824V26.8689H111.993V13.0744L120.792 26.8689H122.302V10.4824H120.792V24.2967L111.993 10.4824H110.483ZM165.964 26.5415C167.016 26.9718 168.155 27.187 169.38 27.187C170.419 27.187 171.386 27.0347 172.28 26.7302C173.18 26.4256 173.971 26.0151 174.653 25.4987L173.938 24.2374C173.356 24.7075 172.68 25.0683 171.912 25.3199C171.144 25.5715 170.33 25.6973 169.469 25.6973C168.43 25.6973 167.476 25.5186 166.609 25.161C165.748 24.8035 165 24.3069 164.365 23.6713C163.729 23.0357 163.236 22.2909 162.885 21.4368C162.541 20.5827 162.368 19.6657 162.368 18.6859C162.368 17.706 162.541 16.789 162.885 15.9349C163.236 15.0808 163.729 14.336 164.365 13.7004C165 13.0648 165.748 12.5682 166.609 12.2107C167.476 11.8532 168.43 11.6744 169.469 11.6744C170.33 11.6744 171.144 11.8002 171.912 12.0518C172.68 12.3034 173.356 12.6642 173.938 13.1343L174.653 11.873C173.965 11.35 173.17 10.9395 172.27 10.6416C171.369 10.337 170.406 10.1847 169.38 10.1847C168.148 10.1847 167.006 10.3999 165.954 10.8303C164.908 11.2606 163.991 11.8631 163.203 12.6377C162.421 13.4058 161.812 14.3062 161.375 15.339C160.938 16.3719 160.72 17.4875 160.72 18.6859C160.72 19.8842 160.938 20.9998 161.375 22.0327C161.812 23.0655 162.421 23.9693 163.203 24.7439C163.991 25.5119 164.911 26.1111 165.964 26.5415ZM186.138 26.8689V10.4824H187.648V17.9904H196.596V10.4824H198.095V26.8689H196.596V19.3212H187.648V26.8689H186.138ZM212.567 25.6374C213.52 26.6703 214.94 27.1867 216.827 27.1867C218.714 27.1867 220.131 26.6703 221.078 25.6374C222.031 24.6046 222.508 23.0586 222.508 20.9995V10.4824H220.989V20.6718C220.989 22.3601 220.641 23.6214 219.946 24.4556C219.257 25.2832 218.218 25.697 216.827 25.697C215.43 25.697 214.384 25.2832 213.689 24.4556C213.001 23.6214 212.656 22.3601 212.656 20.6718V10.4824H211.147V20.9995C211.147 23.0586 211.62 24.6046 212.567 25.6374ZM18.1787 7.07049H17.1855V12.0361H18.1787V7.07049ZM17.1855 13.2766H18.1787V18.2422H17.1855V13.2766ZM18.1787 19.4846H17.1855V24.4502H18.1787V19.4846ZM17.1855 25.6913H18.1787V30.6569H17.1855V25.6913ZM18.1787 31.8975H17.1855V36.8631H18.1787V31.8975ZM19.4202 0.863281H20.9098V5.8289H19.4202V0.863281ZM20.9098 7.07049H19.4202V12.0361H20.9098V7.07049ZM19.42 13.2766H20.9097V18.2422H19.42V13.2766ZM20.9098 19.4846H19.4202V24.4502H20.9098V19.4846ZM19.4202 25.6913H20.9098V30.6569H19.4202V25.6913ZM20.9097 31.8975H19.42V36.8631H20.9097V31.8975ZM21.903 0.863281H23.3927V5.8289H21.903V0.863281ZM23.3927 7.07049H21.903V12.0361H23.3927V7.07049ZM21.9029 13.2766H23.3925V18.2422H21.9029V13.2766ZM23.3926 19.4846H21.9029V24.4502H23.3926V19.4846ZM21.9029 25.6913H23.3926V30.6569H21.9029V25.6913ZM23.3925 31.8975H21.9028V36.8631H23.3925V31.8975ZM24.5099 0.863281H25.7513V5.8289H24.5099V0.863281ZM25.7513 7.07049H24.5099V12.0361H25.7513V7.07049ZM24.5098 13.2766H25.7512V18.2422H24.5098V13.2766ZM25.7513 19.4846H24.5099V24.4502H25.7513V19.4846ZM24.5099 25.6913H25.7513V30.6569H24.5099V25.6913ZM25.7511 31.8975H24.5097V36.8631H25.7511V31.8975ZM27.1166 25.6913H28.1098V30.6569H27.1166V25.6913ZM28.11 31.8975H27.1169V36.8631H28.11V31.8975ZM29.7238 25.6913H30.4687V30.6569H29.7238V25.6913ZM30.4687 31.8975H29.7238V36.8631H30.4687V31.8975ZM32.3307 25.6913H32.8273V30.6569H32.3307V25.6913ZM35.1859 25.6913H34.9376V30.6569H35.1859V25.6913ZM32.3307 31.8975H32.8273V36.8631H32.3307V31.8975ZM35.1859 31.8975H34.9376V36.8631H35.1859V31.8975Z" fill="black"/>
<rect id="Rectangle 162_79" x="37.4199" y="31.8979" width="0.248281" height="4.96562" fill="black" fill-opacity="0.6"/>
<rect id="Rectangle 162_80" x="39.9023" y="31.8979" width="0.248281" height="4.96562" fill="black" fill-opacity="0.6"/>
<rect id="Rectangle 162_81" x="42.3857" y="31.8979" width="0.248281" height="4.96562" fill="black" fill-opacity="0.6"/>
<rect id="Rectangle 162_82" x="44.8682" y="31.8979" width="0.248281" height="4.96562" fill="black" fill-opacity="0.6"/>
</g>
</svg>
