<svg width="206" height="37" viewBox="0 0 206 37" fill="none" xmlns="http://www.w3.org/2000/svg">
<path fill-rule="evenodd" clip-rule="evenodd" d="M0.185547 0.863281H1.17867V5.8289H0.185547V0.863281ZM124.789 27.187C123.65 27.187 122.591 26.9685 121.611 26.5315C120.638 26.0946 119.783 25.4888 119.049 24.7141C118.32 23.9395 117.751 23.0391 117.34 22.0128C116.93 20.98 116.725 19.871 116.725 18.6859C116.725 17.5934 116.907 16.5374 117.271 15.5178C117.635 14.4982 118.168 13.5911 118.87 12.7966C119.572 11.9955 120.429 11.3599 121.442 10.8898C122.462 10.4198 123.617 10.1847 124.908 10.1847C125.755 10.1847 126.557 10.2907 127.311 10.5025C128.066 10.7144 128.758 11.009 129.387 11.3864C130.023 11.7638 130.575 12.2074 131.046 12.7172L130.261 13.8692C129.639 13.1608 128.857 12.5947 127.917 12.171C126.977 11.7406 125.967 11.5254 124.888 11.5254C123.855 11.5254 122.932 11.7174 122.117 12.1015C121.31 12.4855 120.624 13.0118 120.062 13.6805C119.499 14.3426 119.072 15.1007 118.78 15.9548C118.489 16.8022 118.343 17.696 118.343 18.6362C118.343 19.6492 118.506 20.5927 118.83 21.4666C119.161 22.3339 119.621 23.0953 120.211 23.7508C120.8 24.3996 121.488 24.9061 122.276 25.2703C123.064 25.6278 123.912 25.8066 124.819 25.8066C125.554 25.8066 126.275 25.6841 126.984 25.4391C127.692 25.1941 128.328 24.8399 128.89 24.3765C129.46 23.913 129.91 23.3602 130.241 22.7179C130.579 22.0691 130.748 21.3408 130.748 20.5331V19.967H124.709V18.7454H132.297V20.2053C132.297 21.364 132.078 22.3803 131.641 23.2542C131.204 24.1282 130.622 24.8565 129.893 25.4391C129.165 26.0151 128.357 26.4521 127.47 26.75C126.583 27.0413 125.689 27.187 124.789 27.187ZM47.6959 26.8689V10.4824H49.2054V25.5381H56.0679V26.8689H47.6959ZM67.491 26.8689L73.9463 10.4824H75.3465L81.7919 26.8689H80.1632L78.167 21.6451H71.1258L69.1097 26.8689H67.491ZM77.6506 20.3143L74.6414 12.4686L71.6323 20.3143H77.6506ZM93.4834 10.4824V26.8689H94.993V13.0744L103.792 26.8689H105.302V10.4824H103.792V24.2967L94.993 10.4824H93.4834ZM148.964 26.5415C150.016 26.9718 151.155 27.187 152.38 27.187C153.419 27.187 154.386 27.0347 155.28 26.7302C156.18 26.4256 156.971 26.0151 157.653 25.4987L156.938 24.2374C156.356 24.7075 155.68 25.0683 154.912 25.3199C154.144 25.5715 153.33 25.6973 152.469 25.6973C151.43 25.6973 150.476 25.5186 149.609 25.161C148.748 24.8035 148 24.3069 147.365 23.6713C146.729 23.0357 146.236 22.2909 145.885 21.4368C145.541 20.5827 145.368 19.6657 145.368 18.6859C145.368 17.706 145.541 16.789 145.885 15.9349C146.236 15.0808 146.729 14.336 147.365 13.7004C148 13.0648 148.748 12.5682 149.609 12.2107C150.476 11.8532 151.43 11.6744 152.469 11.6744C153.33 11.6744 154.144 11.8002 154.912 12.0518C155.68 12.3034 156.356 12.6642 156.938 13.1343L157.653 11.873C156.965 11.35 156.17 10.9395 155.27 10.6416C154.369 10.337 153.406 10.1847 152.38 10.1847C151.148 10.1847 150.006 10.3999 148.954 10.8303C147.908 11.2606 146.991 11.8631 146.203 12.6377C145.421 13.4058 144.812 14.3062 144.375 15.339C143.938 16.3719 143.72 17.4875 143.72 18.6859C143.72 19.8842 143.938 20.9998 144.375 22.0327C144.812 23.0655 145.421 23.9693 146.203 24.7439C146.991 25.5119 147.911 26.1111 148.964 26.5415ZM169.138 26.8689V10.4824H170.648V17.9904H179.596V10.4824H181.095V26.8689H179.596V19.3212H170.648V26.8689H169.138ZM195.567 25.6374C196.52 26.6703 197.94 27.1867 199.827 27.1867C201.714 27.1867 203.131 26.6703 204.078 25.6374C205.031 24.6046 205.508 23.0586 205.508 20.9995V10.4824H203.989V20.6718C203.989 22.3601 203.641 23.6214 202.946 24.4556C202.257 25.2832 201.218 25.697 199.827 25.697C198.43 25.697 197.384 25.2832 196.689 24.4556C196.001 23.6214 195.656 22.3601 195.656 20.6718V10.4824H194.147V20.9995C194.147 23.0586 194.62 24.6046 195.567 25.6374ZM1.17867 7.07049H0.185547V12.0361H1.17867V7.07049ZM0.185547 13.2766H1.17867V18.2422H0.185547V13.2766ZM1.17867 19.4846H0.185547V24.4502H1.17867V19.4846ZM0.185547 25.6913H1.17867V30.6569H0.185547V25.6913ZM1.17867 31.8975H0.185547V36.8631H1.17867V31.8975ZM2.42017 0.863281H3.90985V5.8289H2.42017V0.863281ZM3.90985 7.07049H2.42017V12.0361H3.90985V7.07049ZM2.42003 13.2766H3.90971V18.2422H2.42003V13.2766ZM3.90985 19.4846H2.42017V24.4502H3.90985V19.4846ZM2.42017 25.6913H3.90985V30.6569H2.42017V25.6913ZM3.90971 31.8975H2.42003V36.8631H3.90971V31.8975ZM4.90299 0.863281H6.39267V5.8289H4.90299V0.863281ZM6.39267 7.07049H4.90299V12.0361H6.39267V7.07049ZM4.90285 13.2766H6.39254V18.2422H4.90285V13.2766ZM6.39262 19.4846H4.90294V24.4502H6.39262V19.4846ZM4.90294 25.6913H6.39262V30.6569H4.90294V25.6913ZM6.39249 31.8975H4.9028V36.8631H6.39249V31.8975ZM7.50992 0.863281H8.75132V5.8289H7.50992V0.863281ZM8.75132 7.07049H7.50992V12.0361H8.75132V7.07049ZM7.50978 13.2766H8.75118V18.2422H7.50978V13.2766ZM8.75126 19.4846H7.50986V24.4502H8.75126V19.4846ZM7.50986 25.6913H8.75126V30.6569H7.50986V25.6913ZM8.75112 31.8975H7.50972V36.8631H8.75112V31.8975ZM10.1166 25.6913H11.1098V30.6569H10.1166V25.6913ZM11.11 31.8975H10.1169V36.8631H11.11V31.8975ZM12.7238 25.6913H13.4687V30.6569H12.7238V25.6913ZM13.4687 31.8975H12.7238V36.8631H13.4687V31.8975ZM15.3307 25.6913H15.8273V30.6569H15.3307V25.6913ZM18.1859 25.6913H17.9376V30.6569H18.1859V25.6913ZM15.3307 31.8975H15.8273V36.8631H15.3307V31.8975ZM18.1859 31.8975H17.9376V36.8631H18.1859V31.8975Z" fill="white"/>
</svg>
