<svg width="60" height="60" viewBox="0 0 60 60" fill="none" xmlns="http://www.w3.org/2000/svg">
<g clip-path="url(#clip0_0_2972)">
<path fill-rule="evenodd" clip-rule="evenodd" d="M13.473 44.4157V58.2422C13.473 58.5919 13.3105 58.9216 13.0332 59.1346C12.7558 59.3475 12.3953 59.4194 12.0575 59.3291C8.76486 58.4488 5.98416 57.3136 3.99943 55.9654C2.04892 54.6406 0.632812 52.9399 0.632812 50.8922C0.632812 49.2615 1.53143 47.8509 2.88281 46.6749C3.22797 46.3746 3.60267 46.0895 3.99948 45.82C5.81423 44.5875 8.29444 43.5328 11.223 42.6883V19.3766C8.29444 18.5321 5.8142 17.4774 3.99943 16.2447C2.04892 14.9198 0.632812 13.2192 0.632812 11.1715C0.632812 9.37937 1.7236 7.85112 3.28092 6.6239C4.85095 5.38666 7.0531 4.32161 9.67403 3.44797C14.9276 1.69676 22.1139 0.632812 30 0.632812C37.8861 0.632812 45.0723 1.69676 50.326 3.44797C52.9469 4.32161 55.149 5.38666 56.7191 6.6239C58.2725 7.84808 59.3618 9.3718 59.3672 11.1582L59.3672 11.1715V50.6734C59.3708 50.7459 59.3727 50.8188 59.3727 50.8922C59.3727 52.9399 57.9562 54.6409 56.0054 55.9658C54.0204 57.3141 51.2394 58.4494 47.9466 59.3291C47.6089 59.4193 47.2483 59.3474 46.9711 59.1345C46.6938 58.9215 46.5312 58.5918 46.5312 58.2422V44.4171C43.2119 43.5966 39.3006 43.014 35.0332 42.7545V58.0899C35.0332 58.7112 34.5295 59.2149 33.9082 59.2149H26.0988C25.4775 59.2149 24.9738 58.7112 24.9738 58.0899V42.754C20.7059 43.0132 16.7932 43.5955 13.473 44.4157ZM22.1754 38.0471C22.182 38.0473 22.1887 38.0473 22.1953 38.0473H24.9703V40.5002C20.7626 40.7489 16.8582 41.3045 13.473 42.1012V18.5215C13.473 18.0121 13.1307 17.5662 12.6386 17.4347C9.47421 16.5887 6.95978 15.5355 5.26366 14.3834C3.53331 13.2081 2.88281 12.0968 2.88281 11.1715C2.88281 10.3644 3.37259 9.41632 4.67355 8.39112C5.9618 7.37594 7.89563 6.41248 10.3855 5.5825C15.3536 3.92648 22.2885 2.88281 30 2.88281C37.7115 2.88281 44.6464 3.92648 49.6145 5.5825C52.1044 6.41248 54.0382 7.37594 55.3264 8.39112C56.6274 9.41632 57.1172 10.3644 57.1172 11.1715C57.1172 12.0968 56.4665 13.2084 54.7358 14.3839C53.0394 15.5361 50.5247 16.5893 47.3604 17.4346C46.8682 17.5661 46.5258 18.012 46.5258 18.5215V42.1012C43.1418 41.3047 39.2394 40.7492 35.0332 40.5004V38.0473H37.8117C38.4331 38.0473 38.9367 37.5436 38.9367 36.9223V27.4665C38.9367 24.4565 36.5196 22.0116 33.5209 21.9675C33.4922 21.967 33.4635 21.9668 33.4348 21.9668H26.5652C23.5285 21.9668 21.0668 24.4289 21.0668 27.4664V36.9223C21.0668 37.5381 21.5616 38.0384 22.1754 38.0471ZM26.1152 35.7974C26.729 35.8062 27.2238 36.3065 27.2238 36.9223V56.9649H32.7832V41.6573C32.7809 41.6277 32.7797 41.5978 32.7797 41.5676V36.9223C32.7797 36.3009 33.2834 35.7973 33.9047 35.7973H36.6832V27.4664C36.6832 25.6875 35.2549 24.2433 33.4837 24.2172C33.4686 24.217 33.4535 24.2169 33.4383 24.2169H26.5688C24.7751 24.2169 23.3203 25.6712 23.3203 27.4665V35.7973H26.0953C26.102 35.7973 26.1086 35.7973 26.1152 35.7974ZM48.7758 42.6865C51.7068 43.5308 54.1892 44.5858 56.0053 45.8191C56.4003 46.0873 56.7734 46.3709 57.1172 46.6697V15.3896C56.7719 15.6902 56.397 15.9755 56 16.2451C54.1849 17.4779 51.7044 18.5327 48.7758 19.3767V42.6865ZM57.1172 50.8922V50.7453C57.0515 49.8504 56.3814 48.7941 54.7413 47.6805C53.3062 46.7059 51.2855 45.8023 48.7812 45.0353V56.7503C51.2854 55.9832 53.3061 55.0793 54.7412 54.1046C56.4171 52.9663 57.0803 51.8881 57.1207 50.9808C57.1184 50.9516 57.1172 50.922 57.1172 50.8922ZM2.88281 50.8922C2.88281 51.8176 3.53331 52.9289 5.26366 54.1042C6.69849 55.0788 8.71893 55.9826 11.223 56.7501V45.0356C8.71892 45.803 6.69847 46.7068 5.26361 47.6813C3.53313 48.8566 2.88281 49.9676 2.88281 50.8922ZM24.5547 14.8232C24.5547 17.8351 26.9963 20.2769 30.0082 20.2769C33.0203 20.2769 35.4619 17.8351 35.4619 14.8232C35.4619 11.8113 33.0203 9.36951 30.0082 9.36951C26.9963 9.36951 24.5547 11.8113 24.5547 14.8232ZM30.0082 18.0269C28.239 18.0269 26.8047 16.5925 26.8047 14.8232C26.8047 13.0538 28.239 11.6195 30.0082 11.6195C31.7776 11.6195 33.2119 13.0539 33.2119 14.8232C33.2119 16.5925 31.7776 18.0269 30.0082 18.0269Z" fill="url(#paint0_linear_0_2972)"/>
</g>
<defs>
<linearGradient id="paint0_linear_0_2972" x1="30.0027" y1="0.632812" x2="30.0027" y2="74.6307" gradientUnits="userSpaceOnUse">
<stop stop-color="white"/>
<stop offset="1" stop-color="white" stop-opacity="0"/>
</linearGradient>
<clipPath id="clip0_0_2972">
<rect width="60" height="60" fill="white"/>
</clipPath>
</defs>
</svg>
