<svg width="48" height="48" viewBox="0 0 48 48" fill="none" xmlns="http://www.w3.org/2000/svg">
<path fill-rule="evenodd" clip-rule="evenodd" d="M10.9766 4.59995C10.6452 4.59995 10.3766 4.86857 10.3766 5.19995V22.4799C10.3766 22.8113 10.6452 23.0799 10.9766 23.0799H20.1325L23.7246 27.1945C23.8386 27.3251 24.0034 27.3999 24.1766 27.3999C24.3499 27.3999 24.5147 27.3251 24.6286 27.1945L28.2207 23.0799H37.3766C37.708 23.0799 37.9766 22.8113 37.9766 22.4799V5.19995C37.9766 4.86857 37.708 4.59995 37.3766 4.59995H10.9766ZM11.5766 21.8799V5.79995H36.7766V21.8799H27.948C27.7748 21.8799 27.61 21.9548 27.496 22.0854L24.1766 25.8876L20.8572 22.0854C20.7432 21.9548 20.5784 21.8799 20.4052 21.8799H11.5766ZM6.55211 39.6058C7.60407 37.3246 8.92603 35.9466 10.3529 35.1274C11.7861 34.3045 13.3756 34.0165 15.0065 34.0022C16.6439 33.9878 18.2868 34.2485 19.8257 34.4986L19.9641 34.5211C21.4164 34.7574 22.8255 34.9867 23.945 34.8833L23.894 34.3314L23.945 34.8833C24.4036 34.8409 26.0009 34.6639 27.5912 34.4877L27.6175 34.4848C29.2262 34.3065 30.8215 34.1297 31.2684 34.0885H31.2684C31.8661 34.0333 32.4352 34.4981 32.493 35.1659C32.5188 35.4633 32.423 35.6917 32.2279 35.9016C32.0163 36.1292 31.6895 36.3294 31.2837 36.5051C29.0066 37.491 26.5376 38.3469 24.4804 38.8299C24.1578 38.9057 23.9577 39.2286 24.0335 39.5512C24.1092 39.8738 24.4321 40.0739 24.7547 39.9982C26.8972 39.4951 29.435 38.6131 31.7605 37.6063C32.2322 37.402 32.7322 37.1216 33.1069 36.7185C33.2081 36.6096 33.2998 36.4919 33.3792 36.3654L42.1872 34.2386C42.7569 34.113 43.1641 34.1993 43.4359 34.352C43.7114 34.5069 43.8951 34.7558 43.977 35.0408C44.1392 35.6049 43.9033 36.3072 43.0945 36.6009C42.4156 36.8385 40.749 37.5207 38.7114 38.3548L38.7106 38.3551C38.3671 38.4957 38.0131 38.6406 37.6515 38.7885C35.1255 39.8211 32.2037 41.0067 29.8241 41.8989C28.1093 42.5418 27.0386 42.888 25.9607 43.0603C24.8838 43.2325 23.7715 43.2357 21.9678 43.1496L21.9392 43.7479L21.9677 43.1496L16.4655 42.8872C16.1953 42.8743 15.9498 43.0439 15.8663 43.3011L15.3543 44.8771C15.2519 45.1922 15.4244 45.5307 15.7396 45.6331C16.0547 45.7355 16.3932 45.563 16.4956 45.2478L16.866 44.1077L21.9106 44.3483C23.7262 44.4349 24.9432 44.4382 26.1501 44.2453C27.3559 44.0525 28.5233 43.6682 30.2454 43.0225L30.0347 42.4607L30.2454 43.0225C32.6439 42.1232 35.5812 40.9312 38.1056 39.8992C38.4617 39.7536 38.8091 39.6114 39.1453 39.4738L39.1611 39.4674L39.1661 39.4653C41.2178 38.6256 42.8494 37.9578 43.4937 37.7325L43.4937 37.7325L43.4996 37.7304C44.9328 37.2125 45.4587 35.8518 45.1303 34.7093C44.9669 34.1407 44.5918 33.6252 44.0239 33.306C43.453 32.9851 42.7337 32.8878 41.9217 33.0684L41.9216 33.0683L41.9111 33.0708L33.688 35.0563C33.573 33.7665 32.4536 32.774 31.1581 32.8936C30.6977 32.9361 29.0904 33.1142 27.4944 33.291L27.4853 33.2921C25.8766 33.4703 24.2814 33.6471 23.8346 33.6884C22.8695 33.7776 21.5875 33.5692 20.0263 33.3154L20.0182 33.3141C18.4913 33.066 16.7508 32.7868 14.996 32.8022C13.2347 32.8177 11.4232 33.1292 9.75543 34.0867C8.08137 35.0478 6.60245 36.6311 5.4624 39.1033L5.91526 39.3121L5.4624 39.1033L2.83019 44.8112C2.69142 45.1121 2.82287 45.4686 3.12379 45.6073C3.4247 45.7461 3.78114 45.6146 3.9199 45.3137L6.55211 39.6058ZM15.7735 11.8001C15.7735 11.4688 16.0421 11.2001 16.3735 11.2001H31.9735C32.3049 11.2001 32.5735 11.4688 32.5735 11.8001C32.5735 12.1315 32.3049 12.4001 31.9735 12.4001H16.3735C16.0421 12.4001 15.7735 12.1315 15.7735 11.8001ZM16.3735 14.8C16.0421 14.8 15.7735 15.0686 15.7735 15.4C15.7735 15.7314 16.0421 16 16.3735 16H24.7735C25.1049 16 25.3735 15.7314 25.3735 15.4C25.3735 15.0686 25.1049 14.8 24.7735 14.8H16.3735Z" fill="url(#paint0_linear_0_1413)"/>
<defs>
<linearGradient id="paint0_linear_0_1413" x1="23.9998" y1="4.59995" x2="23.9998" y2="56.3337" gradientUnits="userSpaceOnUse">
<stop/>
<stop offset="1" stop-opacity="0"/>
</linearGradient>
</defs>
</svg>
