<svg width="20" height="20" viewBox="0 0 20 20" fill="none" xmlns="http://www.w3.org/2000/svg">
<g opacity="0.6">
<path fill-rule="evenodd" clip-rule="evenodd" d="M1.03125 17.0281C1.03125 18.0964 1.89722 18.9624 2.96551 18.9624H17.0213C18.0896 18.9624 18.9556 18.0964 18.9556 17.0281V2.97235C18.9556 1.90411 18.0896 1.03809 17.0213 1.03809H2.96551C1.89722 1.03809 1.03125 1.90411 1.03125 2.97235V17.0281ZM2.96551 17.9624C2.44952 17.9624 2.03125 17.5441 2.03125 17.0281V2.97235C2.03125 2.45638 2.44952 2.03809 2.96551 2.03809H17.0213C17.5373 2.03809 17.9556 2.45638 17.9556 2.97235V17.0281C17.9556 17.5441 17.5373 17.9624 17.0213 17.9624H2.96551ZM12.3173 8.38867L16.3762 4.32983L15.6691 3.62273L11.6094 7.68242V4.4066H10.6094V8.88867V9.38867H11.1094H15.5914V8.38867H12.3173ZM7.71308 11.5759L3.65426 15.6347L4.36137 16.3418L8.41957 12.2836V15.558H9.41957V11.0759V10.5759H8.91957H4.4375V11.5759H7.71308Z" fill="black"/>
</g>
</svg>
