<svg width="60" height="60" viewBox="0 0 60 60" fill="none" xmlns="http://www.w3.org/2000/svg">
<path fill-rule="evenodd" clip-rule="evenodd" d="M2.91406 6.85607C2.91406 3.41908 5.70033 0.632812 9.13732 0.632812C12.4524 0.632812 15.1619 3.22477 15.3501 6.49257H55.9551C56.5765 6.49257 57.0801 6.99625 57.0801 7.61757V51.189C57.0801 51.8103 56.5765 52.314 55.9551 52.314H46.5326L46.5328 58.2421C46.5328 58.5405 46.4143 58.8267 46.2033 59.0377C45.9924 59.2486 45.7062 59.3672 45.4078 59.3672H9.13734C5.70034 59.3672 2.91407 56.5809 2.91407 53.1439L2.91406 6.85607ZM5.16407 46.3621L5.16406 6.85607C5.16406 4.66172 6.94297 2.88281 9.13732 2.88281C11.3318 2.88281 13.1106 4.6617 13.1106 6.85607V7.59146C13.1104 7.60014 13.1103 7.60885 13.1103 7.61757C13.1103 7.6263 13.1104 7.635 13.1106 7.64368L13.1106 14.6231C13.1104 14.6318 13.1103 14.6406 13.1103 14.6493C13.1103 14.6581 13.1104 14.6668 13.1106 14.6755L13.1106 37.0991C13.1104 37.1078 13.1103 37.1167 13.1103 37.1255C13.1103 37.1343 13.1104 37.1431 13.1106 37.1519L13.1106 44.1307C13.1104 44.1395 13.1103 44.1484 13.1103 44.1572C13.1103 44.1661 13.1104 44.1749 13.1106 44.1838L13.1106 46.3621C12.0327 45.467 10.6479 44.9288 9.13734 44.9288C7.62679 44.9288 6.24194 45.467 5.16407 46.3621ZM15.3606 50.0639L54.8301 50.064V8.74257H15.3606V13.5243H48.9234C49.5447 13.5243 50.0484 14.028 50.0484 14.6493V37.1255C50.0484 37.7468 49.5447 38.2505 48.9234 38.2505H15.3606L15.3606 43.0322H50.6813C51.3027 43.0322 51.8063 43.5359 51.8063 44.1572C51.8063 44.7786 51.3027 45.2822 50.6813 45.2822H15.3606L15.3606 50.0639ZM15.3606 36.0005H47.7984V15.7743H15.3606L15.3606 36.0005ZM13.1106 51.1521C13.1106 48.9577 11.3317 47.1788 9.13734 47.1788C6.94298 47.1788 5.16407 48.9577 5.16407 51.1521V53.1439C5.16407 55.3383 6.94298 57.1172 9.13734 57.1172H44.2828L44.2826 52.314L14.2356 52.3139C13.6143 52.3139 13.1106 51.8102 13.1106 51.1889V51.1521Z" fill="url(#paint0_linear_0_2981)"/>
<defs>
<linearGradient id="paint0_linear_0_2981" x1="29.9971" y1="0.632812" x2="29.9971" y2="74.6306" gradientUnits="userSpaceOnUse">
<stop stop-color="white"/>
<stop offset="1" stop-color="white" stop-opacity="0"/>
</linearGradient>
</defs>
</svg>
