<svg width="40" height="40" viewBox="0 0 40 40" fill="none" xmlns="http://www.w3.org/2000/svg">
<path fill-rule="evenodd" clip-rule="evenodd" d="M8.4015 11.3999C8.45362 9.77262 9.77258 8.45358 11.3999 8.4015V4.9999V4.3999H12.5999V4.9999V8.3999H15.3999V4.9999V4.3999H16.5999V4.9999V8.3999H19.3999V4.9999V4.3999H20.5999V4.9999V8.3999H23.3999V4.9999V4.3999H24.5999V4.9999V8.3999H28.3999V4.9999V4.3999H29.5999V4.9999V8.60228C30.7371 9.03671 31.5574 10.1235 31.5983 11.3999H34.9999H35.5999V12.5999H34.9999H31.5999V15.3999H34.9999H35.5999V16.5999H34.9999H31.5999V19.3999H34.9999H35.5999V20.5999H34.9999H31.5999V23.3999H34.9999H35.5999V24.5999H34.9999H31.5999V27.3999H34.9999H35.5999V28.5999H34.9999H31.5983C31.5574 29.8763 30.7371 30.9631 29.5999 31.3975V34.9999V35.5999H28.3999V34.9999V31.5999H24.5999V34.9999V35.5999H23.3999V34.9999V31.5999H20.5999V34.9999V35.5999H19.3999V34.9999V31.5999H16.5999V34.9999V35.5999H15.3999V34.9999V31.5999H12.5999V34.9999V35.5999H11.3999V34.9999V31.5983C9.77258 31.5462 8.45362 30.2272 8.4015 28.5999H4.9999H4.3999V27.3999H4.9999H8.3999V24.5999H4.9999H4.3999V23.3999H4.9999H8.3999V20.5999H4.9999H4.3999V19.3999H4.9999H8.3999V16.5999H4.9999H4.3999V15.3999H4.9999H8.3999V12.5999H4.9999H4.3999V11.3999H4.9999H8.4015ZM30.3999 28.4999V27.3999V24.5999V23.3999V20.5999V19.3999V16.5999V15.3999V12.5999V11.4999C30.3999 10.4563 29.5436 9.5999 28.4999 9.5999H11.4999C10.4562 9.5999 9.5999 10.4563 9.5999 11.4999V12.5999V15.3999V16.5999V19.3999V20.5999V23.3999V24.5999V27.3999V28.4999C9.5999 29.5436 10.4562 30.3999 11.4999 30.3999H12.5999H15.3999H16.5999H19.3999H20.5999H23.3999H24.5999H28.3999H28.4999C29.5436 30.3999 30.3999 29.5436 30.3999 28.4999ZM15.5 27.5999C13.7937 27.5999 12.3999 26.2063 12.3999 24.4999V15.4999C12.3999 13.7936 13.7937 12.3999 15.5 12.3999H24.4998C26.2062 12.3999 27.5999 13.7936 27.5999 15.4999V24.4999C27.5999 26.2063 26.2062 27.5999 24.4998 27.5999H15.5ZM13.5999 24.4999C13.5999 25.5435 14.4564 26.3999 15.5 26.3999H24.4998C25.5435 26.3999 26.3999 25.5435 26.3999 24.4999V15.4999C26.3999 14.4563 25.5435 13.5999 24.4998 13.5999H15.5C14.4564 13.5999 13.5999 14.4563 13.5999 15.4999V24.4999Z" fill="url(#paint0_linear_0_2138)"/>
<defs>
<linearGradient id="paint0_linear_0_2138" x1="19.9999" y1="4.3999" x2="19.9999" y2="43.7079" gradientUnits="userSpaceOnUse">
<stop/>
<stop offset="1" stop-opacity="0"/>
</linearGradient>
</defs>
</svg>
