<svg width="40" height="40" viewBox="0 0 40 40" fill="none" xmlns="http://www.w3.org/2000/svg">
<g clip-path="url(#clip0_0_2183)">
<path fill-rule="evenodd" clip-rule="evenodd" d="M20.0077 8.80326C17.7347 8.80326 15.8921 6.96065 15.8921 4.68764C15.8921 2.41463 17.7347 0.572021 20.0077 0.572021C22.2807 0.572021 24.1233 2.41463 24.1233 4.68764C24.1233 6.96065 22.2807 8.80326 20.0077 8.80326ZM17.0921 4.68764C17.0921 6.29791 18.3974 7.60326 20.0077 7.60326C21.618 7.60326 22.9233 6.29791 22.9233 4.68764C22.9233 3.07737 21.618 1.77202 20.0077 1.77202C18.3974 1.77202 17.0921 3.07737 17.0921 4.68764ZM4.09521 25.9376C4.09521 28.2106 5.93783 30.0533 8.21084 30.0533C10.4839 30.0533 12.3265 28.2106 12.3265 25.9376C12.3265 23.6646 10.4839 21.822 8.21084 21.822C5.93783 21.822 4.09521 23.6646 4.09521 25.9376ZM8.21084 28.8533C6.60057 28.8533 5.29521 27.5479 5.29521 25.9376C5.29521 24.3274 6.60057 23.022 8.21084 23.022C9.82111 23.022 11.1265 24.3274 11.1265 25.9376C11.1265 27.5479 9.82111 28.8533 8.21084 28.8533ZM0.57959 39.4283H1.17959H15.2421H15.8421V38.8283C15.8421 34.6136 12.4255 31.197 8.21084 31.197C3.99619 31.197 0.57959 34.6136 0.57959 38.8283V39.4283ZM1.80721 38.2283C2.10979 34.9577 4.86125 32.397 8.21084 32.397C11.5604 32.397 14.3119 34.9577 14.6145 38.2283H1.80721ZM12.3765 18.1783H12.9765H27.039H27.639V17.5783C27.639 13.3636 24.2223 9.94702 20.0077 9.94702C15.7931 9.94702 12.3765 13.3636 12.3765 17.5783V18.1783ZM13.6041 16.9783C13.9067 13.7077 16.6581 11.147 20.0077 11.147C23.3572 11.147 26.1088 13.7077 26.4113 16.9783H13.6041ZM24.9635 28.8385L20.6077 26.6606V22.3439V21.7439H19.4077V22.3439V26.6606L15.0519 28.8385L14.5152 29.1068L15.0519 30.1801L15.5885 29.9118L20.0077 27.7022L24.4269 29.9118L24.9635 30.1801L25.5002 29.1068L24.9635 28.8385ZM27.6812 25.9376C27.6812 28.2106 29.5238 30.0533 31.7968 30.0533C34.0698 30.0533 35.9124 28.2106 35.9124 25.9376C35.9124 23.6646 34.0698 21.822 31.7968 21.822C29.5238 21.822 27.6812 23.6646 27.6812 25.9376ZM31.7968 28.8533C30.1865 28.8533 28.8812 27.5479 28.8812 25.9376C28.8812 24.3274 30.1865 23.022 31.7968 23.022C33.407 23.022 34.7124 24.3274 34.7124 25.9376C34.7124 27.5479 33.407 28.8533 31.7968 28.8533ZM24.7655 39.4283H24.1655V38.8283C24.1655 34.6136 27.5821 31.197 31.7968 31.197C36.0113 31.197 39.428 34.6136 39.428 38.8283V39.4283H38.828H24.7655ZM31.7968 32.397C28.4472 32.397 25.6957 34.9577 25.3931 38.2283H38.2004C37.8978 34.9577 35.1463 32.397 31.7968 32.397Z" fill="url(#paint0_linear_0_2183)"/>
</g>
<defs>
<linearGradient id="paint0_linear_0_2183" x1="20.0038" y1="0.572021" x2="20.0038" y2="49.5259" gradientUnits="userSpaceOnUse">
<stop/>
<stop offset="1" stop-opacity="0"/>
</linearGradient>
<clipPath id="clip0_0_2183">
<rect width="40" height="39.9999" fill="white"/>
</clipPath>
</defs>
</svg>
