<svg width="60" height="60" viewBox="0 0 60 60" fill="none" xmlns="http://www.w3.org/2000/svg">
<g clip-path="url(#clip0_0_3053)">
<path fill-rule="evenodd" clip-rule="evenodd" d="M30 -1.125C30.6213 -1.125 31.125 -0.62132 31.125 0V7.40912L39.5416 14.9841C39.8879 15.2957 40.0063 15.7885 39.8394 16.2234C39.6725 16.6582 39.2549 16.9453 38.7891 16.9453H31.125V21.0938C31.125 21.7151 30.6213 22.2188 30 22.2188C29.3787 22.2188 28.875 21.7151 28.875 21.0938V16.9453H21.2109C20.7451 16.9453 20.3275 16.6582 20.1606 16.2234C19.9937 15.7885 20.1121 15.2957 20.4584 14.9841L28.875 7.40913V0C28.875 -0.62132 29.3787 -1.125 30 -1.125ZM30 14.6953H35.8574L30 9.42369L24.1426 14.6953H30ZM1.75781 20.2031C2.37913 20.2031 2.88281 20.7068 2.88281 21.3281V37.7812H11.1797V33.6328C11.1797 31.0698 13.2573 28.9922 15.8203 28.9922H19.3351H19.3369H40.6631H40.6649H44.1797C46.7427 28.9922 48.8203 31.0698 48.8203 33.6328V37.7812H57.1172V21.3281C57.1172 20.7068 57.6209 20.2031 58.2422 20.2031C58.8635 20.2031 59.3672 20.7068 59.3672 21.3281V38.9062V45.9375V60C59.3672 60.6213 58.8635 61.125 58.2422 61.125C57.6209 61.125 57.1172 60.6213 57.1172 60V47.0625H48.8203V49.4531C48.8203 50.0744 48.3166 50.5781 47.6953 50.5781H45.3047V60C45.3047 60.6213 44.801 61.125 44.1797 61.125C43.5584 61.125 43.0547 60.6213 43.0547 60V50.5781H31.125V57.1172H38.9062C39.5276 57.1172 40.0312 57.6209 40.0312 58.2422C40.0312 58.8635 39.5276 59.3672 38.9062 59.3672H30H21.0937C20.4724 59.3672 19.9687 58.8635 19.9687 58.2422C19.9687 57.6209 20.4724 57.1172 21.0937 57.1172H28.875V50.5781H16.9453V60C16.9453 60.6213 16.4416 61.125 15.8203 61.125C15.199 61.125 14.6953 60.6213 14.6953 60V50.5781H12.3047C11.6834 50.5781 11.1797 50.0744 11.1797 49.4531V47.0625H2.88281V60C2.88281 60.6213 2.37913 61.125 1.75781 61.125C1.13649 61.125 0.632812 60.6213 0.632812 60V45.9375V38.9062V21.3281C0.632812 20.7068 1.13649 20.2031 1.75781 20.2031ZM15.8203 31.2422H18.8736L29.2089 41.4639C29.6472 41.8974 30.3528 41.8974 30.7911 41.4639L41.1264 31.2422H44.1797C45.5 31.2422 46.5703 32.3125 46.5703 33.6328V38.9033L46.5703 38.9062L46.5703 38.9092V45.9345L46.5703 45.9375L46.5703 45.9405V48.3281H44.1797H30H15.8203H13.4297V45.939L13.4297 45.9375L13.4297 45.936V38.9077L13.4297 38.9062L13.4297 38.9048V33.6328C13.4297 32.3125 14.5 31.2422 15.8203 31.2422ZM30 39.0818L22.0733 31.2422H37.9267L30 39.0818ZM2.88281 44.8125H11.1797V40.0312H2.88281V44.8125ZM57.1172 44.8125V40.0312H48.8203V44.8125H57.1172Z" fill="url(#paint0_linear_0_3053)"/>
</g>
<defs>
<linearGradient id="paint0_linear_0_3053" x1="30" y1="-1.125" x2="30" y2="77.302" gradientUnits="userSpaceOnUse">
<stop/>
<stop offset="1" stop-opacity="0"/>
</linearGradient>
<clipPath id="clip0_0_3053">
<rect width="60" height="60" fill="white"/>
</clipPath>
</defs>
</svg>
