<svg width="20" height="20" viewBox="0 0 20 20" fill="none" xmlns="http://www.w3.org/2000/svg">
<g id="email 1">
<path id="path465" d="M1.92461 5.97525C1.62993 5.7827 1.45312 5.45871 1.45312 5.11169V5.11083C1.45312 4.49734 1.96031 4 2.58592 4H17.3204C17.9459 4 18.4531 4.49734 18.4531 5.11083V5.11138V5.11169C18.4531 5.45871 18.2764 5.7827 17.9817 5.97525C16.5438 6.91552 12.211 9.74797 10.5818 10.8133C10.2011 11.0622 9.70521 11.0622 9.32444 10.8133C7.69525 9.74797 3.36253 6.91552 1.92461 5.97525Z" stroke="white" stroke-width="1.2" stroke-miterlimit="10" stroke-linecap="round" stroke-linejoin="round"/>
<path id="path469" d="M1.45312 5V14.9C1.45312 15.1918 1.57241 15.4714 1.78519 15.6777C1.99769 15.8842 2.28585 16 2.58645 16H17.3198C17.6204 16 17.9086 15.8842 18.1211 15.6777C18.3338 15.4714 18.4531 15.1918 18.4531 14.9V5" stroke="white" stroke-width="1.2" stroke-miterlimit="10" stroke-linecap="round" stroke-linejoin="round"/>
</g>
</svg>
