<svg width="20" height="20" viewBox="0 0 20 20" fill="none" xmlns="http://www.w3.org/2000/svg">
<g opacity="0.6" clip-path="url(#clip0_0_1511)">
<path fill-rule="evenodd" clip-rule="evenodd" d="M9.98637 0.169922C8.379 0.169922 6.90484 0.743807 5.75852 1.69673H2.27361H1.77361V2.19673V5.66548C0.766567 6.82632 0.15625 8.3423 0.15625 10C0.15625 11.6578 0.766567 13.1738 1.77361 14.3346V17.8034V18.3034H2.27361H5.75852C6.90484 19.2563 8.379 19.8302 9.98637 19.8302C11.5937 19.8302 13.0679 19.2563 14.2142 18.3034H17.6991H18.1991V17.8034V14.3346C19.2062 13.1738 19.8165 11.6578 19.8165 10C19.8165 8.34234 19.2062 6.82632 18.1991 5.66548V2.19673V1.69673H17.6991H14.2142C13.0679 0.743807 11.5937 0.169922 9.98637 0.169922ZM6.27381 2.57184C7.26414 1.69905 8.56279 1.16992 9.98637 1.16992C11.41 1.16992 12.7086 1.69905 13.6989 2.57184L13.8406 2.69673H14.0295H16.5138L14.3048 4.90564C13.615 4.3639 12.8044 4.04919 11.9751 3.96157L10.3834 2.36984L10.0299 2.01628L9.6763 2.36984L8.09357 3.95257C7.20193 4.02825 6.32744 4.36566 5.5962 4.96477L3.32816 2.69673H5.94322H6.1321L6.27381 2.57184ZM15.0196 5.60513L17.1991 3.42557V5.85631V6.05151L17.3314 6.19507C18.2537 7.19633 18.8165 8.53187 18.8165 10C18.8165 11.4683 18.2537 12.8038 17.3314 13.805L17.1991 13.9486V14.1438V16.4339L15.0821 14.3169C15.644 13.601 15.9616 12.7554 16.0347 11.8937L17.6175 10.311L17.971 9.95745L17.6175 9.60389L16.0257 8.01216C15.9348 7.1517 15.5994 6.3114 15.0196 5.60513ZM14.3827 15.0317C13.6506 15.6329 12.7746 15.9714 11.8813 16.0472L10.2985 17.6299L9.945 17.9835L9.59144 17.6299L7.99971 16.0382C7.17207 15.9507 6.36309 15.6371 5.67408 15.0973L3.46803 17.3034H5.94322H6.1321L6.27381 17.4282C7.26414 18.301 8.56279 18.8302 9.98637 18.8302C11.41 18.8302 12.7086 18.301 13.6989 17.4282L13.8406 17.3034H14.0295H16.6544L14.3827 15.0317ZM2.77361 16.5836V14.1438V13.9486L2.64136 13.805C1.71903 12.8038 1.15625 11.4683 1.15625 10C1.15625 8.53183 1.71903 7.19633 2.64136 6.19507L2.77361 6.05151V5.85631V3.5564L4.896 5.67879C4.33203 6.39549 4.0134 7.24271 3.94012 8.10602L2.35738 9.68876L2.00383 10.0423L2.35738 10.3959L3.94912 11.9876C4.04021 12.8497 4.37671 13.6915 4.95856 14.3986L2.77361 16.5836ZM8.66721 4.79314L10.0299 3.4305L11.3972 4.79787L11.5308 4.93143L11.7193 4.94332C12.5537 4.99596 13.3718 5.34044 14.0094 5.97795C14.6469 6.61546 14.9913 7.43356 15.044 8.26801L15.0559 8.45652L15.1894 8.59008L16.5568 9.95745L15.1942 11.3201L15.0561 11.4581L15.0481 11.6531C15.0128 12.5147 14.6668 13.3644 14.0094 14.0218L14.0094 14.0219C13.3519 14.6793 12.5023 15.0253 11.6407 15.0606L11.4457 15.0686L11.3076 15.2066L9.945 16.5693L8.57763 15.2019L8.44406 15.0683L8.25555 15.0564C7.4211 15.0038 6.60301 14.6593 5.9655 14.0218C5.32799 13.3843 4.98351 12.5662 4.93087 11.7318L4.91898 11.5432L4.78541 11.4097L3.41804 10.0423L4.78069 8.67966L4.91871 8.54164L4.92672 8.34661C4.96208 7.48505 5.30801 6.63537 5.96546 5.97791C6.62292 5.32046 7.4726 4.97453 8.33416 4.93917L8.52919 4.93116L8.66721 4.79314Z" fill="black"/>
</g>
<defs>
<clipPath id="clip0_0_1511">
<rect width="20" height="20" fill="white"/>
</clipPath>
</defs>
</svg>
