<svg width="40" height="40" viewBox="0 0 40 40" fill="none" xmlns="http://www.w3.org/2000/svg">
<g clip-path="url(#clip0_0_2131)">
<path fill-rule="evenodd" clip-rule="evenodd" d="M17.0596 1.10487C17.0936 0.801297 17.3504 0.571777 17.6558 0.571777H22.3433C22.6487 0.571777 22.9054 0.801268 22.9395 1.10482L23.3777 5.00715C25.1194 5.39804 26.749 6.08456 28.2111 7.011L31.2815 4.56004C31.5203 4.36946 31.8641 4.38869 32.0801 4.6047L35.3946 7.91923C35.6106 8.13523 35.6299 8.47902 35.4393 8.71776L32.988 11.7893C33.914 13.2512 34.6007 14.8803 34.9916 16.6217L38.8949 17.0596C39.1985 17.0936 39.428 17.3504 39.428 17.6558V22.3433C39.428 22.6487 39.1985 22.9054 38.895 22.9395L34.9926 23.3777C34.6018 25.1193 33.9152 26.749 32.9888 28.2111L35.4398 31.2815C35.6303 31.5203 35.6111 31.8641 35.3951 32.0801L32.0806 35.3946C31.8646 35.6106 31.5208 35.6299 31.282 35.4393L28.2106 32.988C26.7486 33.9141 25.1193 34.6008 23.3777 34.9917L22.9395 38.895C22.9054 39.1985 22.6487 39.428 22.3433 39.428H17.6558C17.3504 39.428 17.0936 39.1985 17.0596 38.8949L16.6217 34.9925C14.8801 34.6016 13.2506 33.9151 11.7884 32.9886L8.71769 35.4393C8.47894 35.6299 8.13515 35.6106 7.91915 35.3946L4.60462 32.0801C4.38861 31.8641 4.36939 31.5203 4.55996 31.2815L7.01152 28.2103C6.08549 26.7484 5.39887 25.1192 5.00801 23.3777L1.10484 22.9395C0.801276 22.9054 0.571777 22.6487 0.571777 22.3433V17.6558C0.571777 17.3504 0.801297 17.0936 1.10487 17.0596L5.00706 16.6217C5.39788 14.88 6.08428 13.2501 7.01066 11.7878L4.5604 8.71769C4.36985 8.47894 4.3891 8.13515 4.60509 7.91915L7.91962 4.60462C8.13563 4.38861 8.47945 4.36939 8.7182 4.55996L11.7882 7.01049C13.2504 6.0842 14.8802 5.39787 16.6217 5.00707L17.0596 1.10487ZM18.1923 1.77178L17.7658 5.57227C17.7366 5.83293 17.5414 6.04438 17.2839 6.09437C15.3907 6.46195 13.6318 7.2066 12.0886 8.24762C11.8712 8.39428 11.5838 8.38275 11.3788 8.21914L8.38883 5.83247L5.83291 8.38839L8.21933 11.3785C8.38291 11.5835 8.39443 11.8709 8.24777 12.0883C7.20668 13.6316 6.46195 15.3906 6.09437 17.2839C6.04439 17.5414 5.83294 17.7366 5.57227 17.7658L1.77178 18.1923V21.8069L5.57325 22.2336C5.83389 22.2629 6.04532 22.4581 6.09531 22.7155C6.46286 24.6085 7.20787 26.3668 8.24866 27.9099C8.3953 28.1273 8.38376 28.4147 8.22016 28.6197L5.83247 31.6109L8.38839 34.1668L11.3791 31.7799C11.5841 31.6163 11.8716 31.6048 12.089 31.7515C13.6322 32.7927 15.3908 33.5376 17.284 33.9053C17.5415 33.9553 17.7366 34.1667 17.7658 34.4274L18.1923 38.228H21.8069L22.2336 34.4265C22.2629 34.1658 22.4581 33.9544 22.7155 33.9044C24.6086 33.5369 26.3668 32.7917 27.9101 31.7509C28.1275 31.6043 28.4149 31.6158 28.6199 31.7794L31.6113 34.1668L34.1672 31.6109L31.7801 28.6204C31.6165 28.4154 31.605 28.1279 31.7517 27.9105C32.7928 26.3675 33.5377 24.6087 33.9054 22.7155C33.9554 22.4581 34.1668 22.2629 34.4274 22.2337L38.228 21.8069V18.1923L34.4265 17.7659C34.1658 17.7366 33.9543 17.5414 33.9043 17.284C33.5368 15.3911 32.7916 13.6329 31.7509 12.0897C31.6043 11.8723 31.6158 11.5849 31.7794 11.3799L34.1668 8.38847L31.6109 5.83255L28.6204 8.21969C28.4154 8.38332 28.1279 8.39483 27.9105 8.24812C26.3675 7.20696 24.6088 6.46209 22.7155 6.09445C22.4581 6.04445 22.2629 5.83303 22.2337 5.5724L21.8069 1.77178H18.1923ZM17.3844 17.3858C15.9407 18.8295 15.9407 21.1703 17.3844 22.614C18.8281 24.0577 21.1688 24.0577 22.6125 22.614C24.0562 21.1703 24.0562 18.8295 22.6125 17.3858C21.1688 15.9421 18.8281 15.9421 17.3844 17.3858ZM16.5358 23.4625C14.6235 21.5502 14.6235 18.4497 16.5358 16.5373C18.4482 14.625 21.5487 14.625 23.461 16.5373C25.3733 18.4497 25.3733 21.5502 23.461 23.4625C21.5487 25.3748 18.4482 25.3748 16.5358 23.4625ZM13.3545 26.6466C9.68364 22.9757 9.68364 17.0241 13.3545 13.3532C17.0254 9.68227 22.9771 9.68227 26.648 13.3532C30.3189 17.0241 30.3189 22.9757 26.648 26.6466C22.9771 30.3175 17.0254 30.3175 13.3545 26.6466ZM12.506 12.5046C8.3665 16.6442 8.3665 23.3556 12.506 27.4952C16.6455 31.6347 23.357 31.6347 27.4965 27.4952C31.6361 23.3556 31.6361 16.6442 27.4965 12.5046C23.357 8.36513 16.6455 8.36513 12.506 12.5046Z" fill="url(#paint0_linear_0_2131)"/>
</g>
<defs>
<linearGradient id="paint0_linear_0_2131" x1="19.9999" y1="0.571777" x2="19.9999" y2="49.5257" gradientUnits="userSpaceOnUse">
<stop/>
<stop offset="1" stop-opacity="0"/>
</linearGradient>
<clipPath id="clip0_0_2131">
<rect width="40" height="40" fill="white"/>
</clipPath>
</defs>
</svg>
