<svg width="60" height="60" viewBox="0 0 60 60" fill="none" xmlns="http://www.w3.org/2000/svg">
<g clip-path="url(#clip0_0_3074)">
<path d="M8 28.125C7.37868 28.125 6.875 27.6213 6.875 27C6.875 26.3787 7.37868 25.875 8 25.875H26C26.6213 25.875 27.125 26.3787 27.125 27C27.125 27.6213 26.6213 28.125 26 28.125H8Z" fill="url(#paint0_linear_0_3074)"/>
<path d="M6.875 34C6.875 34.6213 7.37868 35.125 8 35.125H21C21.6213 35.125 22.125 34.6213 22.125 34C22.125 33.3787 21.6213 32.875 21 32.875H8C7.37868 32.875 6.875 33.3787 6.875 34Z" fill="url(#paint1_linear_0_3074)"/>
<path d="M8 42.125C7.37868 42.125 6.875 41.6213 6.875 41C6.875 40.3787 7.37868 39.875 8 39.875H21C21.6213 39.875 22.125 40.3787 22.125 41C22.125 41.6213 21.6213 42.125 21 42.125H8Z" fill="url(#paint2_linear_0_3074)"/>
<path fill-rule="evenodd" clip-rule="evenodd" d="M-0.244344 12.8928C-0.248097 12.9301 -0.25 12.9677 -0.25 13.0055V56.6906C-0.25 58.6537 1.34235 60.2461 3.30547 60.2461H44.6785C46.643 60.2461 48.2316 58.6523 48.2316 56.6906V51.0239L59.1518 43.7434C59.8826 43.2566 60.2457 42.4699 60.2457 41.6988V25.9629C60.2457 25.9456 60.2453 25.9284 60.2445 25.9114C60.2286 25.1498 59.864 24.3944 59.1507 23.9189L48.2316 16.6395V3.30937C48.2316 1.34767 46.643 -0.246094 44.6785 -0.246094L13.0019 -0.245636C12.7035 -0.245632 12.4174 -0.127116 12.2064 0.0838424L0.0795315 12.2099C-0.0300549 12.3195 -0.114701 12.4494 -0.170752 12.5907C-0.208539 12.6857 -0.233755 12.7871 -0.244344 12.8928ZM11.8769 10.5763V3.59523L3.59031 11.8813H10.5719C11.2924 11.8813 11.8769 11.2968 11.8769 10.5763ZM10.5719 14.1313H2V56.6906C2 57.4111 2.58499 57.9961 3.30547 57.9961H44.6785C45.3976 57.9961 45.9816 57.4125 45.9816 56.6906V52.5239L45.96 52.5384L45.9588 52.5391C45.5612 52.8035 45.1055 52.9405 44.6478 52.95C44.6307 52.9508 44.6135 52.9512 44.5962 52.9512C44.5787 52.9512 44.5614 52.9508 44.5441 52.95C44.0867 52.9403 43.6315 52.8033 43.2341 52.5391L43.2329 52.5383L30.0423 43.7434C29.3132 43.2577 28.9473 42.472 28.9473 41.6988V25.9629C28.9475 25.1839 29.3122 24.405 30.0415 23.9188L43.2331 15.1245C44.0585 14.5742 45.1338 14.5742 45.9592 15.1245L45.9816 15.1395V3.30937C45.9816 2.58748 45.3976 2.00391 44.6785 2.00391L14.1269 2.00435V10.5763C14.1269 12.5394 12.535 14.1313 10.5719 14.1313ZM57.9037 41.8714L46.5355 49.4505C46.5001 49.4714 46.4659 49.4942 46.4331 49.5187L45.7212 49.9934V36.9426C45.8024 36.9007 45.8819 36.854 45.9592 36.8025L57.9957 28.7782V41.6988C57.9957 41.7357 57.987 41.7695 57.9729 41.7968C57.96 41.8218 57.9392 41.8477 57.9037 41.8714ZM43.4712 36.9426V49.9929L31.2898 41.8709C31.2538 41.8469 31.2332 41.8209 31.2201 41.7956C31.2058 41.768 31.1973 41.7346 31.1973 41.6988V28.7787L43.2331 36.8025C43.3104 36.854 43.3899 36.9007 43.4712 36.9426ZM31.2896 26.136C31.2282 26.0951 31.1974 26.0296 31.1973 25.964V25.9629C31.1974 25.8974 31.2282 25.8319 31.2896 25.791L44.4811 16.9966C44.5508 16.9502 44.6415 16.9502 44.7111 16.9966L46.439 18.1486C46.468 18.17 46.4981 18.19 46.5292 18.2086L57.9028 25.7911C58.0259 25.8732 58.0258 26.054 57.9027 26.136L44.7111 34.9304C44.6415 34.9768 44.5508 34.9768 44.4811 34.9304L31.2896 26.136Z" fill="url(#paint3_linear_0_3074)"/>
</g>
<defs>
<linearGradient id="paint0_linear_0_3074" x1="29.9978" y1="-0.246094" x2="29.9978" y2="75.9663" gradientUnits="userSpaceOnUse">
<stop/>
<stop offset="1" stop-opacity="0"/>
</linearGradient>
<linearGradient id="paint1_linear_0_3074" x1="29.9978" y1="-0.246094" x2="29.9978" y2="75.9663" gradientUnits="userSpaceOnUse">
<stop/>
<stop offset="1" stop-opacity="0"/>
</linearGradient>
<linearGradient id="paint2_linear_0_3074" x1="29.9978" y1="-0.246094" x2="29.9978" y2="75.9663" gradientUnits="userSpaceOnUse">
<stop/>
<stop offset="1" stop-opacity="0"/>
</linearGradient>
<linearGradient id="paint3_linear_0_3074" x1="29.9978" y1="-0.246094" x2="29.9978" y2="75.9663" gradientUnits="userSpaceOnUse">
<stop/>
<stop offset="1" stop-opacity="0"/>
</linearGradient>
<clipPath id="clip0_0_3074">
<rect width="60" height="60" fill="white"/>
</clipPath>
</defs>
</svg>
