<svg width="60" height="60" viewBox="0 0 60 60" fill="none" xmlns="http://www.w3.org/2000/svg">
<path fill-rule="evenodd" clip-rule="evenodd" d="M2.29687 10.9746C2.29687 10.301 2.84202 9.75586 3.51562 9.75586H44.7211C45.3939 9.75586 45.9398 10.3014 45.9398 10.9746V20.8997C41.7163 21.5006 38.4688 25.1316 38.4688 29.5211C38.4688 30.7033 38.7043 31.8305 39.1311 32.8584H22.5197V30.0141C22.5197 27.27 20.7618 24.9365 18.3107 24.0783C19.3091 23.0098 19.9202 21.5747 19.9202 19.9969C19.9202 16.6945 17.243 14.0173 13.9405 14.0173C10.6381 14.0173 7.96094 16.6945 7.96094 19.9969C7.96094 21.5745 8.57181 23.0093 9.5699 24.0778C7.118 24.9356 5.35938 27.2695 5.35938 30.0141V32.8584H2.29687V10.9746ZM21.4036 35.1084H40.4972C40.8284 35.5039 41.194 35.8696 41.5896 36.2009C40.0585 36.5432 38.6717 37.2676 37.5343 38.2688H3.51562C2.84202 38.2688 2.29687 37.7236 2.29687 37.05V35.1084H6.47549L6.48438 35.1084H21.3947L21.4036 35.1084ZM0.046875 10.9746V33.9834V37.05C0.046875 38.9662 1.59938 40.5188 3.51562 40.5188H20.8203V45.5064H19.9022C16.6641 45.5064 14.0391 48.1314 14.0391 51.3695C14.0391 51.9908 14.5427 52.4945 15.1641 52.4945H35.5364L35.5406 52.4945H54.5539H57.6593C58.9278 52.4945 59.9561 51.4662 59.9561 50.1976V45.169C59.9561 40.7812 56.8809 37.1117 52.7683 36.1981C54.6741 34.6006 55.8859 32.2024 55.8859 29.5211C55.8859 25.0539 52.5224 21.3724 48.1898 20.8707V10.9746C48.1898 9.058 46.6358 7.50586 44.7211 7.50586H3.51562C1.59938 7.50586 0.046875 9.05837 0.046875 10.9746ZM29.8831 45.5064V40.5188H35.6758C34.8739 41.8829 34.4141 43.4722 34.4141 45.169V46.7536C33.4179 45.9722 32.1625 45.5063 30.7983 45.5064H30.7982H29.8831ZM20.2697 30.0141V32.8584H7.60938V30.0141C7.60938 27.7843 9.41698 25.9767 11.6468 25.9767H16.2323C18.4621 25.9767 20.2697 27.7843 20.2697 30.0141ZM10.2109 19.9969C10.2109 17.9371 11.8807 16.2673 13.9405 16.2673C16.0004 16.2673 17.6702 17.9371 17.6702 19.9969C17.6702 22.0567 16.0004 23.7266 13.9405 23.7266C11.8807 23.7266 10.2109 22.0567 10.2109 19.9969ZM47.1773 23.0625C43.6103 23.0625 40.7188 25.9541 40.7188 29.5211C40.7188 33.0748 43.589 35.9582 47.1378 35.9795H47.2168C50.7656 35.9582 53.6359 33.0748 53.6359 29.5211C53.6359 25.9541 50.7443 23.0625 47.1773 23.0625ZM43.6036 38.2295H47.1314L47.1773 38.2296L47.2232 38.2295H50.7666C54.5992 38.2295 57.7061 41.3364 57.7061 45.169V50.1976C57.7061 50.2235 57.6852 50.2445 57.6593 50.2445H54.5539H36.6641V45.169C36.6641 41.3365 39.7709 38.2295 43.6036 38.2295ZM34.2328 50.2445H16.4676C16.9405 48.7999 18.2995 47.7564 19.9022 47.7564H30.7983H30.7983C32.401 47.7563 33.76 48.7998 34.2328 50.2445ZM23.0703 40.519V45.5062H27.6331V40.519H23.0703ZM26.8537 12.4994C25.1831 12.4994 23.8289 13.8536 23.8289 15.5241V19.0864L22.7488 20.4844L22.7487 20.4844C21.9364 21.536 22.6858 23.0626 24.0148 23.0626H35.332C37.0025 23.0626 38.3567 21.7083 38.3567 20.0378V15.5241C38.3567 13.8536 37.0025 12.4994 35.332 12.4994H26.8537ZM26.0789 15.5241C26.0789 15.0963 26.4257 14.7494 26.8537 14.7494H35.332C35.7598 14.7494 36.1067 15.0963 36.1067 15.5241V20.0378C36.1067 20.4657 35.7598 20.8126 35.332 20.8126H25.3386L25.8441 20.1582C25.9963 19.9612 26.0789 19.7193 26.0789 19.4704V15.5241Z" fill="url(#paint0_linear_0_2828)"/>
<defs>
<linearGradient id="paint0_linear_0_2828" x1="30.0015" y1="7.50586" x2="30.0015" y2="64.1858" gradientUnits="userSpaceOnUse">
<stop/>
<stop offset="1" stop-opacity="0"/>
</linearGradient>
</defs>
</svg>
