<svg width="20" height="20" viewBox="0 0 20 20" fill="none" xmlns="http://www.w3.org/2000/svg">
<g opacity="0.6">
<path fill-rule="evenodd" clip-rule="evenodd" d="M7.125 1.61182H6.625V2.11182V4.48027H1.53125H1.03125V4.98027V10.7173V11.2173H1.53125H2.46094V17.8888V18.3888H2.96094H17.0167H17.5167V17.8888V11.2173H18.4556H18.9556V10.7173V4.98027V4.48027H18.4556H13.3621V2.11182V1.61182H12.8621H7.125ZM12.3621 4.48027V2.61182H7.625V4.48027H9.9934H12.3621ZM3.46094 11.2173H5.19531V12.8687H6.19531V11.2173H13.7969V12.8687H14.7969V11.2173H16.5167V17.3888H3.46094V11.2173ZM14.7969 10.2173H17.9556V5.48027H9.9934H2.03125V10.2173H5.19531V8.56592H6.19531V10.2173H13.7969V8.56592H14.7969V10.2173Z" fill="black"/>
</g>
</svg>
