<svg width="24" height="24" viewBox="0 0 24 24" fill="none" xmlns="http://www.w3.org/2000/svg">
<g id="linkedin 1">
<g id="_x31_0.Linkedin">
<path id="Vector" d="M21.5955 19.2003V12.1683C21.5955 8.71227 20.8515 6.07227 16.8195 6.07227C14.8755 6.07227 13.5795 7.12827 13.0515 8.13627H13.0035V6.38427H9.1875V19.2003H13.1715V12.8403C13.1715 11.1603 13.4835 9.55227 15.5475 9.55227C17.5875 9.55227 17.6115 11.4483 17.6115 12.9363V19.1763H21.5955V19.2003Z" fill="white"/>
<path id="Vector_2" d="M2.71094 6.38379H6.69494V19.1998H2.71094V6.38379Z" fill="white"/>
<path id="Vector_3" d="M4.70244 0C3.43044 0 2.39844 1.032 2.39844 2.304C2.39844 3.576 3.43044 4.632 4.70244 4.632C5.97444 4.632 7.00644 3.576 7.00644 2.304C7.00644 1.032 5.97444 0 4.70244 0Z" fill="white"/>
</g>
</g>
</svg>
