<svg width="20" height="20" viewBox="0 0 20 20" fill="none" xmlns="http://www.w3.org/2000/svg">
<g opacity="0.6">
<path fill-rule="evenodd" clip-rule="evenodd" d="M10.4225 18.9826C10.3298 19.1217 10.1737 19.2052 10.0065 19.2052C9.83932 19.2052 9.68321 19.1217 9.59047 18.9826C9.178 18.3639 8.70681 17.704 8.2086 17.0063L8.20858 17.0062C8.05901 16.7968 7.90701 16.5839 7.75343 16.3677C7.09195 15.4366 6.40673 14.4513 5.78812 13.4455C4.56163 11.4513 3.54688 9.29966 3.54688 7.25553C3.54688 3.69324 6.44422 0.795898 10.0065 0.795898C13.5688 0.795898 16.4661 3.69324 16.4661 7.25553C16.4661 9.29966 15.4514 11.4513 14.2249 13.4455C13.6063 14.4513 12.921 15.4366 12.2596 16.3677C12.106 16.5839 11.954 16.7968 11.8044 17.0063L11.8043 17.0064C11.3061 17.7041 10.835 18.3639 10.4225 18.9826ZM4.54688 7.25553C4.54688 9.00389 5.42836 10.9517 6.63991 12.9216C7.24031 13.8978 7.90954 14.8607 8.56867 15.7886C8.71825 15.9992 8.86762 16.2083 9.01558 16.4155L9.01589 16.416C9.35855 16.8958 9.69366 17.3651 10.0065 17.8167C10.3193 17.3652 10.6544 16.8959 10.997 16.4161L10.9971 16.416L10.9973 16.4157C11.1453 16.2085 11.2947 15.9992 11.4443 15.7886C12.1035 14.8607 12.7727 13.8978 13.3731 12.9216C14.5846 10.9517 15.4661 9.00389 15.4661 7.25553C15.4661 4.24553 13.0165 1.7959 10.0065 1.7959C6.99651 1.7959 4.54688 4.24553 4.54688 7.25553ZM10.0058 10.4644C8.23603 10.4644 6.79688 9.0252 6.79688 7.25544C6.79688 5.48567 8.23603 4.04651 10.0058 4.04651C11.7756 4.04651 13.2147 5.48567 13.2147 7.25544C13.2147 9.0252 11.7756 10.4644 10.0058 10.4644ZM7.79688 7.25544C7.79688 8.47292 8.78831 9.46436 10.0058 9.46436C11.2233 9.46436 12.2147 8.47292 12.2147 7.25544C12.2147 6.03795 11.2233 5.04651 10.0058 5.04651C8.78831 5.04651 7.79688 6.03795 7.79688 7.25544Z" fill="black"/>
</g>
</svg>
