<svg width="20" height="20" viewBox="0 0 20 20" fill="none" xmlns="http://www.w3.org/2000/svg">
<g opacity="0.6" clip-path="url(#clip0_0_1488)">
<path fill-rule="evenodd" clip-rule="evenodd" d="M6.52343 6.9458C4.84469 6.9458 3.28206 6.60666 2.12081 6.03653C1.74249 5.85079 1.38884 5.63046 1.08594 5.37781V7.10986C1.08594 7.6209 1.52869 8.22558 2.56152 8.73265C3.56 9.22286 4.96613 9.53955 6.52343 9.53955C7.35309 9.53955 8.13691 9.44958 8.83752 9.29012C9.64136 8.40162 10.6927 7.74128 11.8828 7.41785V5.39496C11.5918 5.6392 11.2535 5.85329 10.8902 6.03492C9.74685 6.60662 8.20225 6.9458 6.52343 6.9458ZM13.5547 7.1958C13.3278 7.1958 13.1036 7.20769 12.8828 7.23087V3.51607H12.8828C12.8828 2.41568 12.0037 1.55404 10.8902 0.997303C9.74685 0.425602 8.20225 0.0864258 6.52343 0.0864258C4.84469 0.0864258 3.28206 0.425565 2.12081 0.995692C0.993909 1.54895 0.0859375 2.40912 0.0859375 3.51611V7.10986V10.6255V14.1411C0.0859375 15.2481 0.993909 16.1083 2.12081 16.6615C3.28206 17.2317 4.84469 17.5708 6.52343 17.5708C7.21107 17.5708 7.87412 17.5139 8.49512 17.4083C9.65695 18.9316 11.491 19.9146 13.5547 19.9146C17.0669 19.9146 19.9141 17.0674 19.9141 13.5552C19.9141 10.043 17.0669 7.1958 13.5547 7.1958ZM1.08594 12.4872V14.1411C1.08594 14.6521 1.52869 15.2568 2.56152 15.7639C3.56 16.2541 4.96613 16.5708 6.52343 16.5708C7.00276 16.5708 7.46694 16.5408 7.90872 16.4846C7.52269 15.7421 7.27883 14.9138 7.21321 14.0359C6.98662 14.0486 6.75648 14.0552 6.52343 14.0552C4.84469 14.0552 3.28206 13.716 2.12081 13.1459C1.74249 12.9602 1.38884 12.7398 1.08594 12.4872ZM7.21636 13.034C6.98952 13.048 6.75826 13.0552 6.52343 13.0552C4.96613 13.0552 3.56 12.7385 2.56152 12.2483C1.52869 11.7412 1.08594 11.1365 1.08594 10.6255V8.97158C1.38884 9.22423 1.74249 9.44456 2.12081 9.6303C3.28206 10.2004 4.84469 10.5396 6.52343 10.5396C7.0327 10.5396 7.52863 10.5084 8.00407 10.4492C7.56912 11.2249 7.29204 12.101 7.21636 13.034ZM1.08594 3.51611C1.08594 4.02713 1.52869 4.63181 2.56152 5.13889C3.56 5.6291 4.96613 5.9458 6.52343 5.9458C8.08067 5.9458 9.46575 5.62914 10.443 5.1405C11.4502 4.6369 11.8828 4.0337 11.8828 3.51611C11.8828 2.99852 11.4502 2.39532 10.443 1.89173C9.46575 1.40309 8.08067 1.08643 6.52343 1.08643C4.96613 1.08643 3.56 1.40313 2.56152 1.89334C1.52869 2.40042 1.08594 3.0051 1.08594 3.51611ZM8.19531 13.5552C8.19531 16.5151 10.5948 18.9146 13.5547 18.9146C16.5146 18.9146 18.9141 16.5151 18.9141 13.5552C18.9141 10.5953 16.5146 8.1958 13.5547 8.1958C10.5948 8.1958 8.19531 10.5953 8.19531 13.5552Z" fill="black"/>
</g>
<defs>
<clipPath id="clip0_0_1488">
<rect width="20" height="20" fill="white"/>
</clipPath>
</defs>
</svg>
