<svg width="60" height="60" viewBox="0 0 60 60" fill="none" xmlns="http://www.w3.org/2000/svg">
<path fill-rule="evenodd" clip-rule="evenodd" d="M43.0332 20.6562C41.9202 20.6562 41.0219 19.7458 41.0219 18.6424V14.8439H37.2178C36.1098 14.8439 35.2031 13.9453 35.2031 12.8336V9.48103H18.2945V17.8652C18.2945 19.8079 16.7081 21.3962 14.7608 21.3962H6.38282V56.8039C6.38282 57.2931 6.79138 57.7031 7.28434 57.7031H45.2588C45.7516 57.7031 46.1602 57.2932 46.1602 56.8039V40.8337V20.6562H43.0332ZM47.2933 18.4062C47.2906 18.4062 47.2879 18.4061 47.2852 18.4061C47.2825 18.4061 47.2798 18.4062 47.2771 18.4062H43.272V13.7189C43.272 13.0976 42.7683 12.5939 42.147 12.5939H37.4531V8.43569C37.455 8.40937 37.4559 8.38281 37.4559 8.35602C37.4559 8.32924 37.455 8.30267 37.4531 8.27636V8.10575H42.147C42.7683 8.10575 43.272 7.60207 43.272 6.98074V2.29688H47.7676V6.98074C47.7676 7.60207 48.2713 8.10575 48.8926 8.10575H53.583V12.5939H48.8926C48.2713 12.5939 47.7676 13.0976 47.7676 13.7189V18.4062H47.2933ZM48.4102 20.6146V40.8337V56.8039C48.4102 58.5382 46.9919 59.9531 45.2588 59.9531H7.28434C5.5512 59.9531 4.13281 58.5382 4.13281 56.8039V20.2712V20.2712C4.13282 19.9889 4.23679 19.7309 4.40852 19.5334C4.42568 19.5136 4.44358 19.4944 4.4622 19.4758L16.3738 7.56065C16.3949 7.53953 16.4168 7.51934 16.4394 7.5001C16.6224 7.34382 16.8562 7.24522 17.1126 7.23246C17.1315 7.2315 17.1505 7.23102 17.1695 7.23102H35.3066C35.5742 6.43173 36.3299 5.85574 37.2178 5.85574H41.0219V2.05723C41.0219 0.948065 41.9259 0.046875 43.0332 0.046875H48.0029C49.1046 0.046875 50.0176 0.942482 50.0176 2.05723V5.85574H53.8218C54.932 5.85574 55.833 6.75995 55.833 7.86949V12.8336C55.833 13.9425 54.9292 14.8439 53.8218 14.8439H50.0176V18.6424C50.0176 19.6118 49.3244 20.4251 48.4102 20.6146ZM14.7608 19.1462H7.97322L16.0445 11.0726V17.8652C16.0445 18.5649 15.4657 19.1462 14.7608 19.1462ZM13.7266 31.3852C13.1052 31.3852 12.6016 30.8815 12.6016 30.2602C12.6016 29.6389 13.1052 29.1352 13.7266 29.1352H38.3212C38.9425 29.1352 39.4462 29.6389 39.4462 30.2602C39.4462 30.8815 38.9425 31.3852 38.3212 31.3852H13.7266ZM12.6016 37.1879C12.6016 37.8092 13.1052 38.3129 13.7266 38.3129H38.3212C38.9425 38.3129 39.4462 37.8092 39.4462 37.1879C39.4462 36.5666 38.9425 36.0629 38.3212 36.0629H13.7266C13.1052 36.0629 12.6016 36.5666 12.6016 37.1879ZM13.7266 45.2402C13.1052 45.2402 12.6016 44.7365 12.6016 44.1152C12.6016 43.4938 13.1052 42.9902 13.7266 42.9902H38.3212C38.9425 42.9902 39.4462 43.4938 39.4462 44.1152C39.4462 44.7365 38.9425 45.2402 38.3212 45.2402H13.7266Z" fill="url(#paint0_linear_0_3076)"/>
<defs>
<linearGradient id="paint0_linear_0_3076" x1="29.9829" y1="0.046875" x2="29.9829" y2="75.521" gradientUnits="userSpaceOnUse">
<stop/>
<stop offset="1" stop-opacity="0"/>
</linearGradient>
</defs>
</svg>
