<svg width="40" height="40" viewBox="0 0 40 40" fill="none" xmlns="http://www.w3.org/2000/svg">
<path fill-rule="evenodd" clip-rule="evenodd" d="M18.3915 12.977C18.5507 12.977 18.7033 12.9138 18.8158 12.8013L22.1303 9.48666C22.3647 9.25234 22.3647 8.87245 22.1303 8.63813C21.896 8.40382 21.5161 8.40383 21.2818 8.63814L18.3915 11.5285L17.1586 10.2954C16.9242 10.0611 16.5443 10.0611 16.31 10.2954C16.0757 10.5297 16.0757 10.9096 16.31 11.1439L17.9673 12.8013C18.0798 12.9138 18.2324 12.977 18.3915 12.977ZM7.23768 12.8013C7.12516 12.9138 6.97254 12.977 6.81341 12.977C6.65428 12.977 6.50167 12.9138 6.38914 12.8013L4.73188 11.1439C4.49757 10.9096 4.49758 10.5297 4.7319 10.2954C4.96622 10.0611 5.34612 10.0611 5.58043 10.2954L6.81343 11.5285L9.70376 8.63814C9.93808 8.40382 10.318 8.40382 10.5523 8.63814C10.7866 8.87245 10.7866 9.25235 10.5523 9.48667L7.23768 12.8013ZM30.3939 12.8014C30.2814 12.9139 30.1288 12.9771 29.9697 12.9771C29.8105 12.9771 29.6579 12.9139 29.5454 12.8014L27.8881 11.144C27.6538 10.9097 27.6538 10.5298 27.8881 10.2955C28.1225 10.0612 28.5024 10.0612 28.7367 10.2955L29.9697 11.5286L32.86 8.63826C33.0943 8.40395 33.4742 8.40395 33.7085 8.63826C33.9429 8.87258 33.9429 9.25247 33.7085 9.48679L30.3939 12.8014ZM23.2108 31.5378L23.1936 31.5376H11.5092C11.5035 31.5377 11.4978 31.5378 11.4921 31.5378H1.17959C0.848219 31.5378 0.57959 31.2692 0.57959 30.9378V18.4378C0.57959 18.1064 0.848219 17.8378 1.17959 17.8378H11.467C11.4727 17.8377 11.4785 17.8376 11.4843 17.8376H23.203L23.2202 17.8378H34.9296C35.1365 17.8378 35.3287 17.9444 35.4384 18.1198L39.3446 24.3698C39.4662 24.5644 39.4662 24.8112 39.3446 25.0058L35.4384 31.2558C35.3287 31.4312 35.1365 31.5378 34.9296 31.5378H23.2108ZM12.5745 19.0376H22.8705L26.4017 24.6876L22.8705 30.3376H12.5748L15.9071 25.0058C16.0287 24.8112 16.0287 24.5644 15.9071 24.3698L12.5745 19.0376ZM27.6181 24.3696L24.2857 19.0378H34.597L38.1283 24.6878L34.597 30.3378H24.2854L27.6181 25.0056C27.7397 24.811 27.7397 24.5641 27.6181 24.3696ZM1.77959 19.0378V30.3378H11.1595L14.6908 24.6878L11.1595 19.0378H1.77959Z" fill="url(#paint0_linear_0_2121)"/>
<defs>
<linearGradient id="paint0_linear_0_2121" x1="20.0077" y1="8.4624" x2="20.0077" y2="37.5344" gradientUnits="userSpaceOnUse">
<stop/>
<stop offset="1" stop-opacity="0"/>
</linearGradient>
</defs>
</svg>
