<svg width="38" height="29" viewBox="0 0 38 29" fill="none" xmlns="http://www.w3.org/2000/svg">
<path fill-rule="evenodd" clip-rule="evenodd" d="M20.7125 20.2637C20.7338 25.6755 25.6755 29.9109 31.2517 28.7135C34.5117 28.0134 37.1332 25.3628 37.8088 22.0815C38.9023 16.7712 35.1641 12.0752 30.206 11.5885C30.6968 7.40015 32.0901 5.16755 32.9389 4.1585C33.6219 3.34667 33.5178 2.16198 32.7981 1.4443L31.9416 0.590167C31.1905 -0.158797 29.9845 -0.206962 29.1866 0.514878C26.7483 2.71945 20.6694 9.31583 20.7125 20.2637ZM30.9656 27.3671C26.2554 28.3785 22.1002 24.8124 22.0823 20.2582C22.0413 9.86446 27.8084 3.61282 30.1028 1.53832C30.3493 1.31531 30.7305 1.32189 30.9769 1.56755L31.8334 2.42168C32.0775 2.66515 32.0865 3.03942 31.8929 3.26957C30.8077 4.55974 29.2015 7.25698 28.7691 12.1753C28.7523 12.3663 28.8155 12.5556 28.9434 12.6977C29.0714 12.8399 29.2525 12.922 29.4432 12.9242C33.9227 12.9774 37.4367 17.0954 36.4675 21.8025C35.902 24.5489 33.6947 26.781 30.9656 27.3671Z" fill="url(#paint0_linear_0_1633)"/>
<path fill-rule="evenodd" clip-rule="evenodd" d="M0.00022805 20.3461C0.021536 25.758 4.96324 29.9933 10.5395 28.796C13.7994 28.0959 16.4209 25.4453 17.0965 22.164C18.19 16.8536 14.4518 12.1577 9.49369 11.671C9.98452 7.48262 11.3778 5.25002 12.2266 4.24097C12.9096 3.42914 12.8055 2.24445 12.0858 1.52677L11.2293 0.672636C10.4782 -0.0763279 9.27217 -0.124493 8.47429 0.597347C6.03606 2.80192 -0.0428767 9.3983 0.00022805 20.3461ZM10.2533 27.4496C5.54317 28.461 1.38791 24.8949 1.36998 20.3407C1.32906 9.94693 7.09609 3.69529 9.39051 1.62079C9.63702 1.39777 10.0182 1.40436 10.2646 1.65001L11.1211 2.50415C11.3653 2.74762 11.3743 3.12189 11.1807 3.35204C10.0954 4.64221 8.48918 7.33944 8.05678 12.2578C8.03999 12.4487 8.10318 12.6381 8.23113 12.7802C8.35908 12.9224 8.54021 13.0045 8.73091 13.0067C13.2104 13.0599 16.7244 17.1778 15.7552 21.885C15.1897 24.6314 12.9824 26.8635 10.2533 27.4496Z" fill="url(#paint1_linear_0_1633)"/>
<defs>
<linearGradient id="paint0_linear_0_1633" x1="19" y1="0" x2="19" y2="34.0182" gradientUnits="userSpaceOnUse">
<stop/>
<stop offset="1" stop-opacity="0"/>
</linearGradient>
<linearGradient id="paint1_linear_0_1633" x1="19" y1="0" x2="19" y2="34.0182" gradientUnits="userSpaceOnUse">
<stop/>
<stop offset="1" stop-opacity="0"/>
</linearGradient>
</defs>
</svg>
