<svg width="64" height="64" viewBox="0 0 64 64" fill="none" xmlns="http://www.w3.org/2000/svg">
<path fill-rule="evenodd" clip-rule="evenodd" d="M52.1525 52.8556C44.2199 54.5502 37.2217 48.575 37.1915 40.944C37.1226 23.5286 46.8352 13.0535 50.6994 9.57748L50.6997 9.57725C51.1148 9.20357 51.7566 9.21484 52.1715 9.62645L53.614 11.0576C54.0252 11.4656 54.0404 12.0927 53.7143 12.4783L54.5394 13.176L53.7143 12.4783C51.8865 14.6401 49.1814 19.1595 48.4532 27.4006C48.4249 27.7205 48.5313 28.0378 48.7468 28.2759C48.9623 28.5141 49.2674 28.6517 49.5885 28.6555C57.1328 28.7446 63.0509 35.6445 61.4185 43.5316C60.4661 48.1335 56.7487 51.8735 52.1525 52.8556ZM34.8847 40.9532C34.9205 50.0211 43.2432 57.1178 52.6344 55.1116L52.6345 55.1116C58.1247 53.9385 62.5397 49.4972 63.6776 43.9992C65.5191 35.1013 59.2234 27.2329 50.8732 26.4173C51.6998 19.3994 54.0464 15.6585 55.4759 13.9678C56.6261 12.6075 56.4509 10.6225 55.2388 9.41995L53.7962 7.98878C52.5313 6.73383 50.5001 6.65313 49.1564 7.86263C45.05 11.5566 34.8121 22.6093 34.8847 40.9532ZM17.2697 52.9938C9.33705 54.6884 2.33893 48.7132 2.30873 41.0822C2.23981 23.6667 11.9524 13.1916 15.8166 9.71567L15.8169 9.71543C16.232 9.34175 16.8738 9.35302 17.2886 9.76463L18.7312 11.1958C19.1424 11.6038 19.1575 12.2309 18.8315 12.6165L19.6566 13.3142L18.8315 12.6165C17.0037 14.7783 14.2986 19.2977 13.5704 27.5387C13.5421 27.8587 13.6485 28.1759 13.864 28.4141C14.0795 28.6523 14.3845 28.7898 14.7057 28.7936C22.25 28.8827 28.1681 35.7826 26.5357 43.6698C25.5833 48.2717 21.8659 52.0117 17.2697 52.9938ZM0.00184892 41.0914C0.037735 50.1593 8.36037 57.256 17.7516 55.2497L17.7516 55.2497C23.2419 54.0767 27.6569 49.6354 28.7948 44.1373C30.6363 35.2395 24.3406 27.3711 15.9904 26.5555C16.817 19.5376 19.1636 15.7967 20.5931 14.106C21.7432 12.7457 21.568 10.7607 20.3559 9.55813L18.9134 8.12696C17.6485 6.87202 15.6173 6.79131 14.2735 8.00081C10.1672 11.6947 -0.0707464 22.7475 0.00184892 41.0914Z" fill="url(#paint0_linear_0_2257)"/>
<defs>
<linearGradient id="paint0_linear_0_2257" x1="32.0005" y1="6.99991" x2="32.0005" y2="63.9999" gradientUnits="userSpaceOnUse">
<stop stop-color="white"/>
<stop offset="1" stop-color="white" stop-opacity="0"/>
</linearGradient>
</defs>
</svg>
