<svg width="60" height="60" viewBox="0 0 60 60" fill="none" xmlns="http://www.w3.org/2000/svg">
<path fill-rule="evenodd" clip-rule="evenodd" d="M13.4011 16.6514C13.4011 7.48685 20.8303 0.0576172 29.9948 0.0576172C39.1593 0.0576172 46.5886 7.48685 46.5886 16.6514C46.5886 25.8159 39.1593 33.2451 29.9948 33.2451C20.8303 33.2451 13.4011 25.8159 13.4011 16.6514ZM29.9948 2.30762C22.0729 2.30762 15.6511 8.72948 15.6511 16.6514C15.6511 24.5732 22.0729 30.9951 29.9948 30.9951C37.9167 30.9951 44.3386 24.5732 44.3386 16.6514C44.3386 8.72948 37.9167 2.30762 29.9948 2.30762ZM38.2681 8.17353C38.7245 8.59513 38.7527 9.30688 38.3311 9.76328L30.0174 18.7633C29.8044 18.9938 29.5048 19.1249 29.191 19.1249C28.8771 19.1249 28.5776 18.9938 28.3646 18.7633L23.1783 13.149C22.7567 12.6927 22.7849 11.9809 23.2413 11.5593C23.6977 11.1377 24.4095 11.1659 24.8311 11.6223L29.191 16.342L36.6783 8.23655C37.0999 7.78015 37.8117 7.75194 38.2681 8.17353ZM49.8262 33.399C51.3446 31.8807 53.7631 31.7496 55.4367 33.0954C57.3874 34.6638 57.5451 37.5783 55.7752 39.3481L45.3514 49.7719C43.5093 51.6139 41.011 52.6489 38.4058 52.6489H21.1922L21.5942 53.3451C21.5941 53.3451 21.5942 53.3452 21.5942 53.3451C22.0945 54.2116 21.7976 55.3196 20.9313 55.8196L14.2116 59.6993C13.3452 60.1994 12.2376 59.9025 11.7374 59.0365L3.25074 44.3373C2.7506 43.4709 3.04749 42.3631 3.91381 41.863L10.6335 37.9833C11.4999 37.4831 12.6077 37.78 13.1078 38.6463L13.7697 39.7927L20.6005 36.2774C22.7029 35.1954 25.1272 34.9157 27.4207 35.4903L38.503 38.2668C40.1433 38.6779 41.3304 40.073 41.4981 41.7272L49.8262 33.399ZM36.2619 43.8648H28.8244C28.2031 43.8648 27.6994 44.3685 27.6994 44.9898C27.6994 45.6111 28.2031 46.1148 28.8244 46.1148H37.5348C37.5416 46.1148 37.5485 46.1148 37.5553 46.1147H38.5481C39.6651 46.1147 40.7361 45.671 41.5259 44.8813L51.4172 34.99C52.1235 34.2838 53.2484 34.2229 54.0267 34.8488C54.9339 35.5782 55.0075 36.9339 54.1842 37.7571L43.7604 48.1809C43.7604 48.1809 43.7604 48.1809 43.7604 48.1809C42.3402 49.601 40.4142 50.3989 38.4058 50.3989H19.8932L14.896 41.7435L21.6301 38.278C23.2465 37.4461 25.1104 37.231 26.8739 37.6729L37.9561 40.4494C38.7275 40.6427 39.2685 41.3359 39.2685 42.1311C39.2685 43.0841 38.4996 43.8575 37.5483 43.8647H36.2728C36.2692 43.8647 36.2656 43.8648 36.2619 43.8648ZM12.3122 41.7683C12.3173 41.7789 12.3225 41.7894 12.3279 41.7999C12.3504 41.8436 12.3753 41.8852 12.4025 41.9247L19.4264 54.0905L13.4665 57.5315L5.41866 43.5922L11.3786 40.1512L12.3122 41.7683ZM11.1593 39.7713C11.1592 39.7711 11.1594 39.7715 11.1593 39.7713V39.7713ZM5.03878 43.8115C5.0386 43.8116 5.03896 43.8114 5.03878 43.8115V43.8115ZM19.8059 53.8714C19.8057 53.8715 19.806 53.8713 19.8059 53.8714V53.8714ZM19.6459 54.4706C19.6458 54.4705 19.6459 54.4706 19.6459 54.4706V54.4706Z" fill="url(#paint0_linear_0_3070)"/>
<defs>
<linearGradient id="paint0_linear_0_3070" x1="30.0076" y1="0.0576172" x2="30.0076" y2="75.5045" gradientUnits="userSpaceOnUse">
<stop/>
<stop offset="1" stop-opacity="0"/>
</linearGradient>
</defs>
</svg>
