<svg width="48" height="48" viewBox="0 0 48 48" fill="none" xmlns="http://www.w3.org/2000/svg">
<path fill-rule="evenodd" clip-rule="evenodd" d="M9.06722 1.65753C7.82768 1.65753 6.8294 2.65594 6.8294 3.8794V41.2097C7.4456 40.7387 8.21576 40.4589 9.05128 40.4589H19.9141V31.528C16.1483 29.9245 13.5066 26.1898 13.5066 21.8365C13.5066 17.527 16.0955 13.8239 19.7999 12.1944C20.0225 12.0964 20.2796 12.1175 20.4833 12.2505C20.687 12.3834 20.8098 12.6102 20.8098 12.8534V20.7785L24.0357 22.3089L27.2615 20.7785V12.8534C27.2615 12.6102 27.3843 12.3834 27.588 12.2505C27.7917 12.1175 28.0488 12.0964 28.2714 12.1944C31.9757 13.8239 34.5647 17.527 34.5647 21.8365C34.5647 26.1899 31.923 29.9246 28.1572 31.5281V40.4589H41.1739V1.65753H9.06722ZM42.6139 41.1755V0.937529C42.6139 0.539884 42.2915 0.217529 41.8939 0.217529H9.06722C7.03976 0.217529 5.3894 1.8533 5.3894 3.8794V44.1207C5.3894 44.1207 5.3894 44.1207 5.3894 44.1207C5.3894 46.1432 7.02885 47.7826 9.05128 47.7826H41.8939C42.2915 47.7826 42.6139 47.4603 42.6139 47.0626V41.1789C42.6139 41.1777 42.6139 41.1766 42.6139 41.1755ZM41.1739 41.8989L41.1739 43.5843C41.1739 43.5854 41.1739 43.5865 41.1739 43.5877V46.3426H9.05128C7.82414 46.3426 6.8294 45.3479 6.8294 44.1207C6.8294 42.8936 7.82414 41.8989 9.05128 41.8989H41.1739ZM19.3698 14.0347C16.7192 15.6234 14.9466 18.5235 14.9466 21.8365C14.9466 25.7469 17.4165 29.0823 20.8838 30.3643C21.1665 30.4688 21.3541 30.7383 21.3541 31.0396V40.4585H26.7172V31.0397C26.7172 30.7384 26.9049 30.4689 27.1875 30.3644C30.6548 29.0824 33.1247 25.747 33.1247 21.8365C33.1247 18.5235 31.3521 15.6234 28.7015 14.0347V21.2338C28.7015 21.5119 28.5414 21.7651 28.2901 21.8843L24.3443 23.7563C24.149 23.849 23.9224 23.849 23.727 23.7563L19.7812 21.8843C19.53 21.7651 19.3698 21.5119 19.3698 21.2338V14.0347Z" fill="url(#paint0_linear_0_1427)"/>
<defs>
<linearGradient id="paint0_linear_0_1427" x1="24.0016" y1="0.217529" x2="24.0016" y2="60.1434" gradientUnits="userSpaceOnUse">
<stop/>
<stop offset="1" stop-opacity="0"/>
</linearGradient>
</defs>
</svg>
