<svg width="60" height="60" viewBox="0 0 60 60" fill="none" xmlns="http://www.w3.org/2000/svg">
<path fill-rule="evenodd" clip-rule="evenodd" d="M42.3685 30.7955C42.0467 31.1172 41.5628 31.2135 41.1424 31.0394C40.7221 30.8652 40.448 30.455 40.448 30V21.9062H30.0078L30.0011 21.9062H10.332V47.3124H19.9324C20.3323 43.6764 22.6557 40.6194 25.8628 39.1811C24.1538 37.9079 23.0469 35.8714 23.0469 33.5765C23.0469 29.7192 26.1739 26.5921 30.0313 26.5921C33.8886 26.5921 37.0157 29.7192 37.0157 33.5765C37.0157 35.8801 35.9004 37.9232 34.1804 39.1954C37.3711 40.6397 39.6804 43.6884 40.079 47.3124H49.6661V23.4979L42.3685 30.7955ZM39.0027 49.5624C39.0068 49.5624 39.011 49.5624 39.0152 49.5624C39.0194 49.5624 39.0236 49.5624 39.0278 49.5624H50.2272L55.4222 56.5312H4.62672L9.95047 49.5624H20.9836C20.9877 49.5624 20.9919 49.5624 20.9961 49.5624C21.0003 49.5624 21.0045 49.5624 21.0087 49.5624H39.0027ZM37.8112 47.3124C37.2818 43.5918 34.1553 40.7079 30.3261 40.5548C30.2283 40.5588 30.13 40.5609 30.0313 40.5609C29.9244 40.5609 29.8181 40.5585 29.7123 40.5537C25.8708 40.6942 22.7308 43.583 22.2001 47.3124H37.8112ZM30.3095 38.3028C32.7947 38.1588 34.7657 36.0978 34.7657 33.5765C34.7657 30.9618 32.646 28.8421 30.0313 28.8421C27.4166 28.8421 25.2969 30.9618 25.2969 33.5765C25.2969 36.0923 27.2593 38.1498 29.7368 38.3019C29.8261 38.2995 29.9157 38.2984 30.0056 38.2984C30.1073 38.2984 30.2085 38.2999 30.3095 38.3028ZM49.9723 20.0097L42.698 27.284V20.7812C42.698 20.1599 42.1943 19.6562 41.573 19.6562H31.1328V3.46875H56.5391V19.6562H50.7979L50.7911 19.6562C50.4684 19.6562 50.1774 19.792 49.9723 20.0097ZM51.9161 21.9062H57.6641C58.2854 21.9062 58.7891 21.4025 58.7891 20.7812V2.34375C58.7891 1.72243 58.2854 1.21875 57.6641 1.21875H30.0078C29.3865 1.21875 28.8828 1.72243 28.8828 2.34375V19.6562H9.20705C8.58573 19.6562 8.08205 20.1599 8.08205 20.7812V48.3018L1.45759 56.9732C1.19782 57.3133 1.15345 57.7712 1.34312 58.1548C1.53279 58.5384 1.92366 58.7812 2.35157 58.7812H57.6641C58.0896 58.7812 58.4787 58.5411 58.6696 58.1607C58.8604 57.7804 58.8203 57.3249 58.566 56.9838L51.9161 48.0633V21.9062Z" fill="url(#paint0_linear_0_3072)"/>
<defs>
<linearGradient id="paint0_linear_0_3072" x1="30.0078" y1="1.21875" x2="30.0078" y2="73.74" gradientUnits="userSpaceOnUse">
<stop/>
<stop offset="1" stop-opacity="0"/>
</linearGradient>
</defs>
</svg>
