<svg width="40" height="40" viewBox="0 0 40 40" fill="none" xmlns="http://www.w3.org/2000/svg">
<g clip-path="url(#clip0_0_2175)">
<path fill-rule="evenodd" clip-rule="evenodd" d="M20.3304 21.0217L19.2543 21.5875L19.4598 20.3892L20.6052 13.7108L15.753 8.98093L14.8824 8.13234L16.0855 7.95752L22.7911 6.98311L25.79 0.906836L26.328 -0.18335L26.8661 0.906836L29.8649 6.98311L36.5706 7.95752L37.7736 8.13234L36.9031 8.98093L32.0508 13.7108L33.1963 20.3892L33.4018 21.5875L32.3257 21.0217L26.328 17.8686L20.3304 21.0217ZM21.8413 13.6027L20.848 19.3939L26.0488 16.6597L26.328 16.5129L26.6072 16.6597L31.808 19.3939L30.8148 13.6027L30.7615 13.2918L30.9873 13.0716L35.1949 8.97022L29.3802 8.12528L29.068 8.07992L28.9284 7.79706L26.328 2.5281L23.7276 7.79706L23.588 8.07992L23.2759 8.12528L17.4611 8.97022L21.6687 13.0716L21.8946 13.2918L21.8413 13.6027ZM8.25803 34.8058V24.4613C10.9201 22.9769 14.2555 23.3658 16.5068 25.4612C17.1987 26.1053 18.0623 26.5353 18.9932 26.6994L18.9933 26.6995L23.6613 27.5226L23.7654 26.9317L23.6613 27.5226C24.822 27.7272 25.5971 28.8341 25.3925 29.9949C25.1877 31.1557 24.0808 31.9308 22.92 31.7261L22.92 31.7261L15.904 30.489L15.3131 30.3848L15.1048 31.5666L15.1048 31.5666L15.1048 31.5669L15.6956 31.6711L22.688 32.904L22.6881 32.904C23.7733 33.0954 24.8913 32.9429 25.8857 32.4678L25.8857 32.4677L35.6093 27.8221C36.4599 27.4158 37.48 27.7228 37.9649 28.5311C38.472 29.3761 38.2179 30.4709 37.3905 31.0064L30.0006 35.788C27.5385 37.3811 24.6684 38.2288 21.7358 38.2288C20.2297 38.2288 18.732 38.0051 17.2915 37.5652L17.2915 37.5652L8.25803 34.8058ZM8.25803 36.0606V37.266V37.866H7.65803H1.17178H0.571777V37.266V21.6411V21.041H1.17178H7.65803H8.25803V21.6411V23.117C11.2644 21.74 14.8528 22.2824 17.3244 24.5828L17.3244 24.5828C17.8468 25.0691 18.4988 25.3938 19.2016 25.5177L19.2016 25.5177L23.8696 26.3408C25.6831 26.6605 26.8939 28.3898 26.5742 30.2033L26.5742 30.2033C26.5308 30.4497 26.4613 30.685 26.3691 30.9069L35.092 26.7394C36.5009 26.0662 38.1906 26.5748 38.9939 27.9137C39.8338 29.3135 39.413 31.127 38.0424 32.0138L38.0424 32.0139L30.6525 36.7955C27.9962 38.5143 24.8997 39.4288 21.7358 39.4288C20.1109 39.4288 18.495 39.1875 16.941 38.7129L16.9409 38.7129L8.25803 36.0606ZM7.05803 35.694V36.666H1.77178V22.2411H7.05803V23.7863L7.0249 23.807V24.139V34.4694V35.0694H7.04958L6.87579 35.6384L7.05803 35.694Z" fill="url(#paint0_linear_0_2175)"/>
</g>
<defs>
<linearGradient id="paint0_linear_0_2175" x1="19.9988" y1="-0.18335" x2="19.9988" y2="49.7229" gradientUnits="userSpaceOnUse">
<stop/>
<stop offset="1" stop-opacity="0"/>
</linearGradient>
<clipPath id="clip0_0_2175">
<rect width="40" height="40" fill="white"/>
</clipPath>
</defs>
</svg>
