<svg width="40" height="40" viewBox="0 0 40 40" fill="none" xmlns="http://www.w3.org/2000/svg">
<path fill-rule="evenodd" clip-rule="evenodd" d="M17.7276 18.524C13.7583 18.524 10.5405 15.3063 10.5405 11.337C10.5405 7.36768 13.7583 4.1499 17.7276 4.1499C21.6969 4.1499 24.9147 7.36768 24.9147 11.337C24.9147 15.3063 21.6969 18.524 17.7276 18.524ZM11.7405 11.337C11.7405 14.6435 14.421 17.324 17.7276 17.324C21.0341 17.324 23.7147 14.6435 23.7147 11.337C23.7147 8.03042 21.0341 5.3499 17.7276 5.3499C14.421 5.3499 11.7405 8.03042 11.7405 11.337ZM24.4374 31.9776C24.106 31.9776 23.8374 31.709 23.8374 31.3776C23.8374 31.0463 24.106 30.7776 24.4374 30.7776H26.2339C26.8946 30.7776 27.4303 30.2419 27.4303 29.5812C27.4303 28.9204 26.8946 28.3847 26.2339 28.3847C24.9104 28.3847 23.8374 27.3117 23.8374 25.9882C23.8374 24.8718 24.6009 23.9336 25.6343 23.6674V22.9942C25.6343 22.6628 25.9029 22.3942 26.2343 22.3942C26.5656 22.3942 26.8343 22.6628 26.8343 22.9942V23.5918H28.0303C28.3617 23.5918 28.6303 23.8604 28.6303 24.1918C28.6303 24.5231 28.3617 24.7918 28.0303 24.7918H26.2453L26.2343 24.7919L26.2253 24.7918C25.5685 24.7964 25.0374 25.3303 25.0374 25.9882C25.0374 26.649 25.5731 27.1847 26.2339 27.1847C27.5574 27.1847 28.6303 28.2577 28.6303 29.5812C28.6303 30.6973 27.8672 31.6353 26.8343 31.9018V32.5754C26.8343 32.9068 26.5656 33.1754 26.2343 33.1754C25.9029 33.1754 25.6343 32.9068 25.6343 32.5754V31.9776H24.4374ZM26.2272 36.7682H5.7499C5.41853 36.7682 5.1499 36.4995 5.1499 36.1682V30.0602C5.1499 24.4924 9.26566 19.879 14.4601 19.879H20.9927C21.2903 19.879 21.584 19.8948 21.8735 19.9247C23.1632 19.2088 24.6476 18.8011 26.2272 18.8011C31.1887 18.8011 35.2107 22.8232 35.2107 27.7846C35.2107 32.7446 31.1911 36.7658 26.2316 36.7682M26.2284 35.5682C21.9303 35.5675 18.4462 32.083 18.4462 27.7846C18.4462 24.9179 19.9959 22.4128 22.306 21.0614C22.3184 21.0542 22.3304 21.0465 22.3421 21.0385C23.4855 20.3787 24.8122 20.0011 26.2272 20.0011C30.5259 20.0011 34.0107 23.4859 34.0107 27.7846C34.0107 32.083 30.5266 35.5675 26.2284 35.5682ZM20.2489 21.079H14.4601C10.0335 21.079 6.3499 25.0449 6.3499 30.0602V35.5682H21.7386C19.0517 34.0153 17.2437 31.1111 17.2437 27.7846C17.2437 25.1188 18.4048 22.7242 20.2489 21.079Z" fill="url(#paint0_linear_0_2164)"/>
<defs>
<linearGradient id="paint0_linear_0_2164" x1="20.1803" y1="6.69883" x2="20.1803" y2="44.5825" gradientUnits="userSpaceOnUse">
<stop/>
<stop offset="1" stop-opacity="0"/>
</linearGradient>
</defs>
</svg>
